<svg xmlns="http://www.w3.org/2000/svg" width="12.5" height="16.864" viewBox="0 0 12.5 16.864"><defs><style>.a{fill:#1a3365;stroke:#1a3365;stroke-width:0.5px;}</style></defs><g transform="translate(-63.75 0.25)"><g transform="translate(64)"><g transform="translate(0)"><path class="a" d="M70,0a6,6,0,0,0-6,6c0,3.224,5.553,9.979,5.79,10.265a.273.273,0,0,0,.421,0C70.447,15.979,76,9.224,76,6A6,6,0,0,0,70,0Zm0,15.658C68.974,14.377,64.545,8.692,64.545,6A5.455,5.455,0,1,1,75.455,6C75.455,8.692,71.026,14.376,70,15.658Z" transform="translate(-64)"/><path class="a" d="M135.534,66.787l-3.545-2.727a.273.273,0,0,0-.333,0l-3.545,2.727a.273.273,0,0,0,.166.489h.818v3a.273.273,0,0,0,.273.273h4.909a.273.273,0,0,0,.273-.273v-3h.818a.273.273,0,0,0,.166-.489ZM132.367,70h-1.091V68.367h1.091Zm1.909-3.273A.273.273,0,0,0,134,67v3h-1.091V68.094a.273.273,0,0,0-.273-.273H131a.273.273,0,0,0-.273.273V70H129.64V67a.273.273,0,0,0-.273-.273h-.289l2.744-2.11,2.744,2.11Z" transform="translate(-125.822 -61.822)"/></g></g></g></svg>