<svg xmlns="http://www.w3.org/2000/svg" width="29.525" height="29.333" viewBox="0 0 29.525 29.333"><defs><style>.a{fill:#fff;}</style></defs><g transform="translate(0 -1.666)"><g transform="translate(0 1.666)"><g transform="translate(0 0)"><path class="a" d="M29.163,10.772,19.4,4.493a.419.419,0,1,0-.454.705l9.617,6.188H26.325L15.377,4.342a1.137,1.137,0,0,0-1.227,0L3.2,11.386H.96L14.763,2.5l1.955,1.258a.419.419,0,1,0,.454-.705L15.216,1.8a.84.84,0,0,0-.907,0L.363,10.772A.789.789,0,0,0,.79,12.225H2.905v2.712a.7.7,0,0,0,.551.68v.738a.7.7,0,0,0,.694.694h.058v5.139a.419.419,0,1,0,.839,0V16.63a.419.419,0,0,0-.419-.419H4.3v-.579H7.266v.579H6.934a.419.419,0,0,0-.419.419V25.9a.419.419,0,0,0,.419.419h.333v.629H4.3v-.629h.333a.419.419,0,0,0,.419-.419V24.824a.419.419,0,1,0-.839,0v.653H4.151a.7.7,0,0,0-.694.694v.738a.7.7,0,0,0-.551.68v.847H1.42a.842.842,0,0,0-.841.841v.882A.842.842,0,0,0,1.42,31H28.106a.842.842,0,0,0,.841-.841v-.882a.842.842,0,0,0-.841-.841H26.621v-.847a.7.7,0,0,0-.551-.68v-.738a.7.7,0,0,0-.694-.694h-.058V17.049h.058a.7.7,0,0,0,.694-.694v-.738a.7.7,0,0,0,.551-.68V12.225h2.115a.789.789,0,0,0,.427-1.452ZM14.6,5.048a.3.3,0,0,1,.319,0l9.851,6.338H4.752ZM3.744,12.225H25.782v1.026H3.744ZM17.087,26.91v-.738a.7.7,0,0,0-.694-.694h-.058V17.049h.058a.7.7,0,0,0,.694-.694v-.738a.7.7,0,0,0,.551-.68V14.09H20.87v.847a.7.7,0,0,0,.551.68v.738a.7.7,0,0,0,.694.694h.058v8.428h-.058a.7.7,0,0,0-.694.694v.738a.7.7,0,0,0-.551.68v.847H17.638v-.847A.7.7,0,0,0,17.087,26.91Zm-8.982,0v-.738a.7.7,0,0,0-.694-.694H7.353V17.049h.058a.7.7,0,0,0,.694-.694v-.738a.7.7,0,0,0,.551-.68V14.09h3.232v.847a.7.7,0,0,0,.551.68v.738a.7.7,0,0,0,.694.694h.058v8.428h-.058a.7.7,0,0,0-.694.694v.738a.7.7,0,0,0-.551.68v.847H8.656v-.847A.7.7,0,0,0,8.1,26.91Zm7.811-.594h.333v.629H13.278v-.629h.333a.419.419,0,0,0,.419-.419V16.629a.419.419,0,0,0-.419-.419h-.333v-.579h2.971v.579h-.333a.419.419,0,0,0-.419.419V25.9A.419.419,0,0,0,15.916,26.316ZM12.858,14.792h-.132v-.7H16.8v.7H12.858Zm-.132,12.971a.419.419,0,0,0,.13.021h3.809a.419.419,0,0,0,.134-.022v.674H12.727ZM3.876,14.792H3.744v-.7H7.817v.7H3.876Zm-.132,12.97a.418.418,0,0,0,.132.021H7.686a.418.418,0,0,0,.132-.021v.673H3.744v-.673Zm24.364,1.514v.884h0l-26.689,0,0-.884Zm-2.46-1.493a.419.419,0,0,0,.133-.022v.674H21.709v-.673a.418.418,0,0,0,.131.021ZM22.593,16.21H22.26v-.579h2.971v.579H24.9a.419.419,0,0,0-.419.419V25.9a.419.419,0,0,0,.419.419h.333v.629H22.26v-.629h.333a.419.419,0,0,0,.419-.419V16.629A.419.419,0,0,0,22.593,16.21Zm3.189-1.418H21.709v-.7h4.073v.7Z" transform="translate(0 -1.666)"/></g></g><g transform="translate(13.218 5.871)"><path class="a" d="M230.934,76.8V75.492c.452.032.619.239.774.239.194,0,.284-.245.284-.368,0-.316-.619-.451-1.058-.464v-.174c0-.077-.1-.148-.193-.148a.17.17,0,0,0-.187.148v.187a1.2,1.2,0,0,0-1.226,1.2c0,.826.645,1.058,1.226,1.264v1.516c-.658-.052-.832-.5-1.045-.5-.161,0-.3.213-.3.368,0,.316.542.748,1.342.761h0v.2a.17.17,0,0,0,.187.148c.1,0,.193-.071.193-.148V79.5a1.249,1.249,0,0,0,1.174-1.329C232.108,77.292,231.5,77.008,230.934,76.8Zm-.342-.123c-.342-.129-.619-.264-.619-.632,0-.335.258-.5.619-.542Zm.3,2.2V77.517a.754.754,0,0,1,.568.722A.614.614,0,0,1,230.9,78.878Z" transform="translate(-229.212 -74.576)"/></g></g></svg>