<svg xmlns="http://www.w3.org/2000/svg" width="26.264" height="18.467" viewBox="0 0 26.264 18.467"><defs><style>.a{fill:#c8c8c8;}</style></defs><g transform="translate(0 -76)"><g transform="translate(0 84.207)"><g transform="translate(0 0)"><path class="a" d="M25.238,236H1.026a1.026,1.026,0,1,0,0,2.052H25.238a1.026,1.026,0,1,0,0-2.052Z" transform="translate(0 -236)"/></g></g><g transform="translate(0 76)"><g transform="translate(0 0)"><path class="a" d="M25.238,76H1.026a1.026,1.026,0,1,0,0,2.052H25.238a1.026,1.026,0,1,0,0-2.052Z" transform="translate(0 -76)"/></g></g><g transform="translate(0 92.415)"><g transform="translate(0 0)"><path class="a" d="M25.238,396H1.026a1.026,1.026,0,0,0,0,2.052H25.238a1.026,1.026,0,0,0,0-2.052Z" transform="translate(0 -396)"/></g></g></g></svg>