<svg xmlns="http://www.w3.org/2000/svg" width="26.682" height="29" viewBox="0 0 26.682 29"><defs><style>.a{fill:#1a3365;}</style></defs><g transform="translate(0 0)"><path class="a" d="M24.157,19.761h0c-.834,0-1.3-.433-1.574-1.446a18.638,18.638,0,0,1-.294-4.129,26.72,26.72,0,0,0-.5-6.065.431.431,0,0,0-.837.205,26.072,26.072,0,0,1,.479,5.865,19.089,19.089,0,0,0,.323,4.345,3.46,3.46,0,0,0,.566,1.225H4.367a3.461,3.461,0,0,0,.566-1.225,19.077,19.077,0,0,0,.323-4.345c.015-2.515.033-5.365,1.062-7.546C7.476,4.19,9.774,3,13.341,3a9.178,9.178,0,0,1,4.765,1.095,5.781,5.781,0,0,1,2.34,2.736.431.431,0,0,0,.789-.346,6.7,6.7,0,0,0-2.684-3.127A8.174,8.174,0,0,0,15.9,2.368a2.565,2.565,0,0,0-5.115,0,8.252,8.252,0,0,0-2.547.922,6.642,6.642,0,0,0-2.7,2.987c-1.11,2.353-1.128,5.3-1.144,7.908A18.624,18.624,0,0,1,4.1,18.315c-.269,1.013-.74,1.446-1.574,1.446h0a2.525,2.525,0,0,0,0,5.051H5.251a.431.431,0,1,0,0-.861H2.525a1.664,1.664,0,0,1,0-3.328H24.157a1.664,1.664,0,0,1,0,3.328H6.974a.431.431,0,0,0,0,.861H8.742a4.619,4.619,0,0,0,9.2,0h6.217a2.525,2.525,0,0,0,0-5.051ZM13.341.861A1.707,1.707,0,0,1,15.012,2.23a14.774,14.774,0,0,0-3.342,0A1.707,1.707,0,0,1,13.341.861Zm0,27.278a3.763,3.763,0,0,1-3.733-3.328h7.466a3.763,3.763,0,0,1-3.733,3.328Zm0,0"/><path class="a" d="M353.963,34.282a5.587,5.587,0,0,1,1.529,1.459,8.283,8.283,0,0,1,1.523,5.056.431.431,0,1,0,.862,0,9.139,9.139,0,0,0-1.723-5.61,6.3,6.3,0,0,0-1.772-1.658.431.431,0,0,0-.418.753Zm0,0" transform="translate(-333.707 -31.579)"/><path class="a" d="M411.736,37.31a4.562,4.562,0,0,1,1.7,3.887.431.431,0,0,0,.861,0,5.394,5.394,0,0,0-2.094-4.613.431.431,0,0,0-.464.725Zm0,0" transform="translate(-388.229 -34.449)"/><path class="a" d="M44.778,41.227a.431.431,0,0,0,.431-.431,8.284,8.284,0,0,1,1.523-5.056,5.605,5.605,0,0,1,1.529-1.459.431.431,0,0,0-.418-.753,6.3,6.3,0,0,0-1.772,1.658,9.14,9.14,0,0,0-1.723,5.61.431.431,0,0,0,.431.431Zm0,0" transform="translate(-41.836 -31.578)"/><path class="a" d="M11.321,41.628a.43.43,0,0,0,.431-.431,4.561,4.561,0,0,1,1.7-3.887.431.431,0,0,0-.464-.725A5.394,5.394,0,0,0,10.891,41.2a.431.431,0,0,0,.431.431Zm0,0" transform="translate(-10.274 -34.449)"/></g></svg>