<svg xmlns="http://www.w3.org/2000/svg" width="30.002" height="39.303" viewBox="0 0 30.002 39.303"><defs><style>.a{fill:#1a3365;}</style></defs><g transform="translate(-50.529)"><g transform="translate(50.529)"><g transform="translate(0)"><path class="a" d="M79.456,1.016h0a1.812,1.812,0,0,0-1.971.3L74.93,3.578,71.455.469A1.838,1.838,0,0,0,69,.469L65.53,3.575,62.057.469a1.839,1.839,0,0,0-2.454,0L56.127,3.578,53.57,1.316a1.828,1.828,0,0,0-3.042,1.379V36.608a1.83,1.83,0,0,0,3.046,1.379l2.554-2.262L59.6,38.834a1.838,1.838,0,0,0,2.453,0l3.472-3.106L69,38.833a1.839,1.839,0,0,0,2.454,0l3.476-3.108,2.557,2.262a1.828,1.828,0,0,0,3.042-1.379V2.695A1.812,1.812,0,0,0,79.456,1.016Zm-3.308,33.33a1.837,1.837,0,0,0-2.444.007l-3.475,3.108-3.472-3.106a1.839,1.839,0,0,0-2.454,0L60.83,37.461l-3.476-3.108a1.828,1.828,0,0,0-2.437-.007l-2.547,2.261V31.7L52.36,2.7l2.551,2.261a1.837,1.837,0,0,0,2.444-.007l3.475-3.108L64.3,4.947a1.839,1.839,0,0,0,2.454,0l3.473-3.106L73.706,4.95a1.828,1.828,0,0,0,2.437.007L78.69,2.695V26.007l.009,10.6Z" transform="translate(-50.529)"/></g></g><g transform="translate(55.885 18.731)"><g transform="translate(0)"><path class="a" d="M127.1,203.527H109.656a.92.92,0,1,0,0,1.841H127.1a.92.92,0,0,0,0-1.841Z" transform="translate(-108.736 -203.527)"/></g></g><g transform="translate(55.885 13.209)"><g transform="translate(0)"><path class="a" d="M118.821,143.527h-9.165a.92.92,0,1,0,0,1.841h9.165a.92.92,0,0,0,0-1.841Z" transform="translate(-108.736 -143.527)"/></g></g><g transform="translate(55.885 24.253)"><g transform="translate(0)"><path class="a" d="M127.1,263.527H109.656a.92.92,0,1,0,0,1.841H127.1a.92.92,0,0,0,0-1.841Z" transform="translate(-108.736 -263.527)"/></g></g></g></svg>