<svg xmlns="http://www.w3.org/2000/svg" width="24.5" height="24.5" viewBox="0 0 24.5 24.5"><defs><style>.a{fill:#c8c8c8;stroke:#c8c8c8;stroke-width:0.5px;}</style></defs><g transform="translate(0.25 0.25)"><path class="a" d="M12,0A12,12,0,1,0,24,12,12,12,0,0,0,12,0Zm0,23.2A11.2,11.2,0,1,1,23.2,12,11.2,11.2,0,0,1,12,23.2Zm0,0"/><path class="a" d="M122.718,195.393a.417.417,0,0,0,.082.008.4.4,0,0,0,.391-.318,5.144,5.144,0,0,1,.2-.7.4.4,0,1,0-.752-.273,5.988,5.988,0,0,0-.229.806A.4.4,0,0,0,122.718,195.393Zm0,0" transform="translate(-116.281 -184.153)"/><path class="a" d="M141.627,155.811a.4.4,0,0,0,.324-.165,5.291,5.291,0,0,1,.466-.557.4.4,0,1,0-.577-.554,5.967,5.967,0,0,0-.536.64.4.4,0,0,0,.323.635Zm0,0" transform="translate(-134.166 -146.691)"/><path class="a" d="M176.1,129.379a.4.4,0,0,0,.2-.054,5.018,5.018,0,0,1,.649-.32.4.4,0,1,0-.3-.742,6.034,6.034,0,0,0-.751.369.4.4,0,0,0,.2.746Zm0,0" transform="translate(-166.91 -121.822)"/><path class="a" d="M116.552,124.377c0-.011,0-.021,0-.031-.007-.026-.017-.051-.025-.076s-.019-.057-.029-.086q-.073-.224-.163-.444l-.032-.08c-.014-.033-.026-.067-.04-.1a.338.338,0,0,0-.023-.031,6,6,0,0,0-.857-1.36c0-.006-.006-.014-.011-.021a6.058,6.058,0,0,0-.583-.6.43.43,0,0,0-.04-.023,6,6,0,0,0-1.313-.88.284.284,0,0,0-.034-.026c-.077-.037-.156-.07-.235-.1l-.068-.03c-.156-.065-.314-.126-.474-.177h-.013a5.981,5.981,0,0,0-1.6-.273c-.012,0-.023-.008-.035-.008h-.124c-.023,0-.045,0-.068,0-.006,0-.012,0-.018,0a6.046,6.046,0,0,0-.626.031.4.4,0,0,0,.04.8l.043,0a5.39,5.39,0,0,1,.615-.027,5.168,5.168,0,0,1,1.952.4l.044.019a5.216,5.216,0,0,1,1.511,1c.108.1.21.208.309.32a5.2,5.2,0,0,1,.911,1.416c.009.02.016.04.025.06q.08.192.143.391c.008.025.017.05.024.074a5.182,5.182,0,0,1,.228,1.518c0,.16-.01.318-.024.474,0,.04-.008.08-.012.12a5.194,5.194,0,0,1-1.846,3.406l-.021.018a5.193,5.193,0,0,1-1.737.942l-.055.016c-.132.04-.266.074-.4.1l-.1.021a5.188,5.188,0,0,1-6.08-3.992l.9.452a.4.4,0,1,0,.357-.716l-1.6-.8a.4.4,0,0,0-.175-.04l-.018,0-.034.01a.387.387,0,0,0-.12.032.393.393,0,0,0-.19.178l-.8,1.6a.4.4,0,1,0,.716.358l.273-.546a5.875,5.875,0,0,0,.466,1.16.319.319,0,0,0,.01.033,5.953,5.953,0,0,0,.445.709c.01.014.026.019.037.031a6.071,6.071,0,0,0,1.08,1.113.379.379,0,0,0,.046.054,5.922,5.922,0,0,0,.693.469.4.4,0,0,0,.095.04,6,6,0,0,0,1.418.568l.036.017a5.992,5.992,0,0,0,.825.144h.04a5.786,5.786,0,0,0,.581.03,5.99,5.99,0,0,0,.972-.086h0a.367.367,0,0,0,.07-.006c.035-.006.069-.015.1-.022s.088-.018.132-.028q.227-.049.448-.116l.07-.02.058-.017c.009,0,.015-.01.024-.013A5.979,5.979,0,0,0,114.13,131c.006,0,.012,0,.017-.008.153-.1.3-.218.445-.336l.028-.023c.062-.052.126-.1.186-.156a.341.341,0,0,0,.029-.04,6.04,6.04,0,0,0,1-1.19.42.42,0,0,0,.04-.049,6.019,6.019,0,0,0,.393-.738.259.259,0,0,0,.006-.027,5.938,5.938,0,0,0,.44-1.539.371.371,0,0,0,.013-.04c.007-.048.01-.1.016-.146s.01-.1.015-.144c.016-.181.028-.362.028-.544v-.031a5.979,5.979,0,0,0-.237-1.612Zm0,0" transform="translate(-98.787 -114.022)"/><path class="a" d="M232.4,168a.4.4,0,0,0-.4.4v3.2a.4.4,0,0,0,.117.283l1.6,1.6a.4.4,0,0,0,.566-.566l-1.483-1.483V168.4A.4.4,0,0,0,232.4,168Zm0,0" transform="translate(-220.4 -159.6)"/></g></svg>