<svg xmlns="http://www.w3.org/2000/svg" width="60.666" height="60.666" viewBox="0 0 60.666 60.666"><defs><style>.a{fill:#1a3365;}</style></defs><g transform="translate(0.001 0.001)"><path class="a" d="M60.665,46.967V12.314L48.35,0H13.7V12.26L8.442,16.64A17.981,17.981,0,0,0,1.956,30.49V48.923H0V60.665h19.57V48.923H17.612V46.966ZM48.924,3.34l8.4,8.4h-8.4ZM46.967,1.956V13.7H58.708V45.01H18.1a3.022,3.022,0,0,1,.372-.455L26.1,36.929a4.438,4.438,0,0,0-6.276-6.276L15.655,34.82V1.956ZM17.612,50.881v1.957H1.956V50.881ZM1.956,58.708V54.794H17.612v3.914Zm1.957-9.785V30.49A16.026,16.026,0,0,1,9.7,18.144l4-3.334V36.127a2.912,2.912,0,0,1-.643.076H11.741V38.16h1.314a4.862,4.862,0,0,0,3.46-1.433l4.69-4.69a2.481,2.481,0,0,1,3.509,3.509l-7.625,7.625a4.862,4.862,0,0,0-1.433,3.46v2.292Zm0,0"/><path class="a" d="M277.871,181.871H272v15.656h17.613v-5.871h5.871V176H277.871Zm9.785,13.7h-13.7V183.828h3.914v7.828h9.785Zm-7.828-17.613h13.7V189.7h-13.7Zm0,0" transform="translate(-238.732 -154.474)"/><path class="a" d="M349.866,210.125l-2.138-2.138-1.384,1.384,3.733,3.733,6.548-8.73L355.06,203.2Zm0,0" transform="translate(-303.983 -178.346)"/><path class="a" d="M144,32h1.957v1.957H144Zm0,0" transform="translate(-126.388 -28.087)"/><path class="a" d="M176,32h23.484v1.957H176Zm0,0" transform="translate(-154.474 -28.087)"/><path class="a" d="M144,64h27.4v1.957H144Zm0,0" transform="translate(-126.388 -56.173)"/><path class="a" d="M352,96h1.957v1.957H352Zm0,0" transform="translate(-308.947 -84.259)"/><path class="a" d="M144,96h23.484v1.957H144Zm0,0" transform="translate(-126.388 -84.259)"/><path class="a" d="M144,128h39.14v1.957H144Zm0,0" transform="translate(-126.388 -112.345)"/><path class="a" d="M144,160h13.7v1.957H144Zm0,0" transform="translate(-126.388 -140.431)"/><path class="a" d="M144,192h13.7v1.957H144Zm0,0" transform="translate(-126.388 -168.517)"/></g></svg>