<svg xmlns="http://www.w3.org/2000/svg" width="10.666" height="14.666" viewBox="0 0 10.666 14.666"><defs><style>.a{fill:#1a3365;}</style></defs><g transform="translate(-64)"><g transform="translate(64)"><path class="a" d="M321.333,2.667A1.333,1.333,0,1,0,320,1.333,1.333,1.333,0,0,0,321.333,2.667Z" transform="translate(-312)"/><path class="a" d="M65.333,128a1.333,1.333,0,1,0,1.333,1.333A1.333,1.333,0,0,0,65.333,128Z" transform="translate(-64 -124)"/><path class="a" d="M65.333,0a1.333,1.333,0,1,0,1.333,1.333A1.333,1.333,0,0,0,65.333,0Z" transform="translate(-64)"/><path class="a" d="M65.333,256a1.333,1.333,0,1,0,1.333,1.333A1.333,1.333,0,0,0,65.333,256Z" transform="translate(-64 -248)"/><path class="a" d="M193.333,384a1.333,1.333,0,1,0,1.333,1.333A1.333,1.333,0,0,0,193.333,384Z" transform="translate(-188 -372.001)"/><path class="a" d="M321.333,128a1.333,1.333,0,1,0,1.333,1.333A1.333,1.333,0,0,0,321.333,128Z" transform="translate(-312 -124)"/><path class="a" d="M193.333,256a1.333,1.333,0,1,0,1.333,1.333A1.333,1.333,0,0,0,193.333,256Z" transform="translate(-188 -248)"/><path class="a" d="M321.333,256a1.333,1.333,0,1,0,1.333,1.333A1.333,1.333,0,0,0,321.333,256Z" transform="translate(-312 -248)"/><path class="a" d="M193.333,128a1.333,1.333,0,1,0,1.333,1.333A1.333,1.333,0,0,0,193.333,128Z" transform="translate(-188 -124)"/><path class="a" d="M193.333,0a1.333,1.333,0,1,0,1.333,1.333A1.333,1.333,0,0,0,193.333,0Z" transform="translate(-188)"/></g></g></svg>