<svg xmlns="http://www.w3.org/2000/svg" width="25.402" height="23.503" viewBox="0 0 25.402 23.503"><defs><style>.a{fill:#fff;}</style></defs><g transform="translate(0 1.249)"><path class="a" d="M273.005,12.138a3.821,3.821,0,0,0,3.317,1.936.5.5,0,1,0,0-1,2.817,2.817,0,0,1-2.308-1.209,1.8,1.8,0,0,0-.072-3.089,2.792,2.792,0,0,1,2.38-1.316h5.942a.608.608,0,0,0,.4-.178,8.447,8.447,0,0,0,2.911-3.485,4.069,4.069,0,0,0-1.159-4.276h0a3.4,3.4,0,0,0-4.3,0A3.984,3.984,0,0,0,278.9,3.608a6.69,6.69,0,0,0,2.009,2.846h-4.591a3.79,3.79,0,0,0-3.4,2.089,1.8,1.8,0,0,0,.083,3.595Zm6.858-8.821a2.984,2.984,0,0,1,.888-3.025,2.392,2.392,0,0,1,3.026,0,3.063,3.063,0,0,1,.846,3.178,7,7,0,0,1-2.358,2.835,7.058,7.058,0,0,1-2.4-2.988Zm-6.808,6.223a.8.8,0,1,1-.8.8A.8.8,0,0,1,273.055,9.541Zm0,0" transform="translate(-260.488 0)"/><path class="a" d="M25.4,294.254a1.8,1.8,0,0,0-1.577-1.786,4.773,4.773,0,0,0-1.32-1.947,3.874,3.874,0,0,0-2.593-.929.5.5,0,0,0,0,1,3.037,3.037,0,0,1,2.9,2.042,1.8,1.8,0,0,0-.067,3.2,3.6,3.6,0,0,1-3.185,1.934H6.217a10.013,10.013,0,0,0,3.166-4.115,5.619,5.619,0,0,0-1.6-5.906,4.663,4.663,0,0,0-5.9,0A5.5,5.5,0,0,0,.214,293.4c.641,2.113,2.5,3.777,4.191,5.17a.762.762,0,0,0,.542.206H19.561a4.6,4.6,0,0,0,4.2-2.727,1.8,1.8,0,0,0,1.644-1.793ZM1.173,293.108a4.521,4.521,0,0,1,1.348-4.581,3.676,3.676,0,0,1,4.628,0,4.635,4.635,0,0,1,1.284,4.808c-.6,1.755-2.161,3.1-3.6,4.289-1.52-1.264-3.127-2.751-3.662-4.516ZM23.6,295.052a.8.8,0,1,1,.8-.8.8.8,0,0,1-.8.8Zm0,0" transform="translate(0 -276.52)"/><path class="a" d="M506.915,43.624a1.8,1.8,0,1,0-1.8,1.8A1.8,1.8,0,0,0,506.915,43.624Zm-2.6,0a.8.8,0,1,1,.8.8A.8.8,0,0,1,504.319,43.624Zm0,0" transform="translate(-483.339 -41.363)"/><path class="a" d="M438.2,359.752a.5.5,0,1,0,.724.016.508.508,0,0,0-.724-.016Zm0,0" transform="translate(-420.665 -346.534)"/><path class="a" d="M66.907,359.063a2.367,2.367,0,1,0-2.367,2.367A2.37,2.37,0,0,0,66.907,359.063Zm-2.367,1.365a1.365,1.365,0,1,1,1.365-1.365A1.366,1.366,0,0,1,64.539,360.427Zm0,0" transform="translate(-59.704 -343.737)"/></g></svg>