<svg xmlns="http://www.w3.org/2000/svg" width="14.247" height="10.685" viewBox="0 0 14.247 10.685"><defs><style>.a{fill:#1a3365;}</style></defs><path class="a" d="M12.911,59.882H1.336A1.337,1.337,0,0,0,0,61.218v8.014a1.337,1.337,0,0,0,1.336,1.336H12.911a1.337,1.337,0,0,0,1.336-1.336V61.218A1.337,1.337,0,0,0,12.911,59.882Zm0,.89a.443.443,0,0,1,.171.034L7.123,65.971,1.165,60.807a.443.443,0,0,1,.171-.034Zm0,8.9H1.336a.446.446,0,0,1-.445-.445V61.748L6.832,66.9a.446.446,0,0,0,.583,0l5.941-5.149v7.484A.446.446,0,0,1,12.911,69.676Z" transform="translate(0 -59.882)"/></svg>