<svg xmlns="http://www.w3.org/2000/svg" width="23.997" height="23.999" viewBox="0 0 23.997 23.999"><defs><style>.a{fill:#1a3365;}</style></defs><path class="a" d="M23.56,0H1.437A.937.937,0,0,0,.5.937,9.156,9.156,0,0,0,3.57,7.775l4.106,3.649A3.34,3.34,0,0,1,8.8,13.918V23.06a.938.938,0,0,0,1.457.78l5.531-3.687a.938.938,0,0,0,.417-.78V13.918a3.34,3.34,0,0,1,1.12-2.495l4.105-3.649A9.156,9.156,0,0,0,24.5.937.937.937,0,0,0,23.56,0ZM20.182,6.373l-4.105,3.649a5.217,5.217,0,0,0-1.749,3.9v4.953l-3.656,2.437v-7.39a5.217,5.217,0,0,0-1.749-3.9L4.816,6.373a7.282,7.282,0,0,1-2.38-4.5H22.562a7.28,7.28,0,0,1-2.38,4.5Zm0,0" transform="translate(-0.5 0)"/></svg>