<svg xmlns="http://www.w3.org/2000/svg" width="67.874" height="72.38" viewBox="0 0 67.874 72.38"><defs><style>.a{fill:#fff;}</style></defs><g transform="translate(-15.937)"><g transform="translate(15.937)"><g transform="translate(0)"><ellipse class="a" cx="2.5" cy="3.5" rx="2.5" ry="3.5" transform="translate(34.874 45.121)"/><path class="a" d="M62.447,66.725h-35.2a5.661,5.661,0,0,1-5.655-5.655V37.886a5.661,5.661,0,0,1,5.655-5.655H67.96a5.756,5.756,0,0,1,1.562.173,2.827,2.827,0,0,0,1.557-5.436,11.235,11.235,0,0,0-3.119-.392h-3.4V16.606a16.968,16.968,0,0,0-33.928,0v9.971H27.246A11.322,11.322,0,0,0,15.937,37.886V61.071A11.322,11.322,0,0,0,27.246,72.38h35.2a2.827,2.827,0,0,0,0-5.655ZM36.289,16.606a11.315,11.315,0,0,1,22.619,0v9.971H36.289Z" transform="translate(-15.937)"/><ellipse class="a" cx="2.5" cy="3.5" rx="2.5" ry="3.5" transform="translate(23.874 45.121)"/><path class="a" d="M374.081,270.925a10.041,10.041,0,0,0-20.081.115,2.827,2.827,0,1,0,5.655,0,4.386,4.386,0,0,1,8.772,0c0,.026,0,.051,0,.077a4.384,4.384,0,0,1-2.667,3.963,7.52,7.52,0,0,0-4.547,6.941v2.445a2.827,2.827,0,0,0,5.655,0v-2.445a1.873,1.873,0,0,1,1.113-1.741,10.032,10.032,0,0,0,6.1-9.241Q374.083,270.982,374.081,270.925Z" transform="translate(-306.209 -224.103)"/><circle class="a" cx="3" cy="3" r="3" transform="translate(54.874 66.121)"/><ellipse class="a" cx="3" cy="3.5" rx="3" ry="3.5" transform="translate(12.874 45.121)"/></g></g></g></svg>