<svg xmlns="http://www.w3.org/2000/svg" width="44.033" height="43.922" viewBox="0 0 44.033 43.922"><defs><style>.a{fill:#1a3365;}</style></defs><g transform="translate(0)"><path class="a" d="M291.137,282.756a1.662,1.662,0,0,1-2.318,1.273l-7.018-3.1a.733.733,0,0,1-.4-.906l3.522-10.464a3.546,3.546,0,0,1,3.962-2.348l1.1.2a3.507,3.507,0,0,1,2.861,4Zm-1.726-.07a.188.188,0,0,0,.174-.007.192.192,0,0,0,.1-.146l1.716-11.339a2.074,2.074,0,0,0-.025-.734l-1.241.98a3.833,3.833,0,0,0-1.284,1.824l-2.689,7.992Zm.32-13.828-1.1-.2a2.035,2.035,0,0,0-.358-.032,2.074,2.074,0,0,0-1.956,1.4l-3.31,9.832,1.81.8,2.645-7.861a5.283,5.283,0,0,1,1.768-2.511l1.345-1.064a2.055,2.055,0,0,0-.844-.367Zm0,0" transform="translate(-273.051 -244.192)"/><path class="a" d="M42.355,6.928,31.4,10.156a1.138,1.138,0,0,0-.4.216l-3.865,3.22-.623.521L21.457,40.358a4.453,4.453,0,0,1-6.179,3.235l-7.04-3.11a2.451,2.451,0,0,1-2.8.687L1.723,39.647A2.447,2.447,0,0,1,.387,36.455L7.149,19.946l-.5-.58a2.6,2.6,0,0,1,.263-3.66L14.649,9a2.6,2.6,0,0,1,3.664.265l1.251,1.448,2.813-2.343h0l5.209-4.237a2.581,2.581,0,0,1,.906-.476L40.365.159a2.6,2.6,0,0,1,3.222,1.756L44.112,3.7a2.6,2.6,0,0,1-1.757,3.228Zm-23.43,5.294L17.2,10.229a1.129,1.129,0,0,0-1.593-.115l-7.738,6.7a1.129,1.129,0,0,0-.115,1.591l.8.921a.734.734,0,0,1,.125.759L1.744,37.007a.979.979,0,0,0,.535,1.277l3.715,1.523a.979.979,0,0,0,1.278-.536.734.734,0,0,1,.976-.394l7.624,3.369a2.989,2.989,0,0,0,4.143-2.17l5.1-26.5a.736.736,0,0,1,.251-.425l.23-.192L22.784,9.942,19.949,12.3a.734.734,0,0,1-1.023-.084ZM42.7,4.116l-.524-1.785a1.128,1.128,0,0,0-1.4-.764L28.917,5.059a1.126,1.126,0,0,0-.393.207l-4.6,3.742,2.8,3.008,3.332-2.777a2.578,2.578,0,0,1,.928-.5L41.942,5.517a1.128,1.128,0,0,0,.763-1.4Zm0,0" transform="translate(-0.203 -0.053)"/><path class="a" d="M5.138,149.3A5.024,5.024,0,0,1,0,144.167c0-2.339,2.843-6.563,4.028-7.93a1.513,1.513,0,0,1,2.217,0c1.185,1.367,4.028,5.591,4.028,7.93A5.024,5.024,0,0,1,5.138,149.3Zm0-12.107c-1.294,1.493-3.668,5.272-3.668,6.97a3.548,3.548,0,0,0,3.668,3.669,3.548,3.548,0,0,0,3.669-3.669C8.807,142.469,6.432,138.69,5.138,137.2Zm0,0" transform="translate(33.758 -124.086)"/><path class="a" d="M239.516,158.959a.734.734,0,0,1,.53.894l-.367,1.437a.734.734,0,0,1-.71.552.708.708,0,0,1-.182-.023.734.734,0,0,1-.53-.892l.367-1.437a.734.734,0,0,1,.892-.531Zm0,0" transform="translate(-216.52 -145.274)"/><path class="a" d="M254.23,204.656l-1.04,4.4a.734.734,0,0,1-.714.565.7.7,0,0,1-.169-.02.734.734,0,0,1-.546-.881l1.04-4.4a.734.734,0,0,1,1.43.338Zm0,0" transform="translate(-231.862 -186.24)"/></g></svg>