<svg xmlns="http://www.w3.org/2000/svg" width="25" height="33.333" viewBox="0 0 25 33.333"><defs><style>.a{fill:#1a3365;}</style></defs><g transform="translate(-64)"><g transform="translate(64)"><path class="a" d="M88.75,4.328,84.584.856a.694.694,0,1,0-.89,1.066L85.473,3.4a3.393,3.393,0,0,0,.882,4.257l1.256,1.005V27.083a.694.694,0,1,1-1.389,0V24.305a3.477,3.477,0,0,0-2.778-3.4V2.778A2.781,2.781,0,0,0,80.667,0H66.778A2.781,2.781,0,0,0,64,2.778V30.556a2.781,2.781,0,0,0,2.778,2.778H80.667a2.781,2.781,0,0,0,2.778-2.778V22.35a2.08,2.08,0,0,1,1.389,1.955v2.778a2.083,2.083,0,1,0,4.167,0V4.861A.692.692,0,0,0,88.75,4.328ZM79.972,18.055h-12.5a.694.694,0,1,1,0-1.389h12.5a.694.694,0,1,1,0,1.389Zm.694-4.861a.694.694,0,0,1-.694.694h-12.5a.694.694,0,0,1-.694-.694V3.472a.694.694,0,0,1,.694-.694h12.5a.694.694,0,0,1,.694.694Zm6.944-6.307-.388-.311A2,2,0,0,1,86.6,4.34l1.016.847v1.7Z" transform="translate(-64)"/></g></g></svg>