<svg xmlns="http://www.w3.org/2000/svg" width="51.601" height="51.601" viewBox="0 0 51.601 51.601"><defs><style>.a{fill:#1a3365;}.b{fill:#09152d;}.c{fill:#f1e8bd;}.d{fill:#f8d98a;}.e{fill:#f03049;}.f{fill:#707789;}.g{fill:#636978;}</style></defs><path class="a" d="M51.6,25.8A25.8,25.8,0,1,1,25.8,0,25.8,25.8,0,0,1,51.6,25.8Zm0,0"/><path class="b" d="M183.775,97.449,165.318,78.993l-.635.816-6.141-6.141L147.62,107.1l10.8,10.744.126,0a25.808,25.808,0,0,0,25.231-20.4Zm0,0" transform="translate(-132.743 -66.244)"/><path class="c" d="M149.274,106.25h-9.761a4.255,4.255,0,0,0-4.255,4.255v22.883a4.255,4.255,0,0,0,4.255,4.255H156.55a4.255,4.255,0,0,0,4.255-4.255V117.781a6.968,6.968,0,0,0-2.041-4.928l-4.562-4.562a6.968,6.968,0,0,0-4.928-2.041Zm6.459,11.825a1.915,1.915,0,0,1-2.708,0l-4.062-4.062a1.915,1.915,0,1,1,2.708-2.708l4.062,4.062A1.915,1.915,0,0,1,155.733,118.075Zm0,0" transform="translate(-121.626 -95.542)"/><path class="d" d="M267.646,112.853l-4.562-4.562a6.968,6.968,0,0,0-4.928-2.041h-1.813v31.394h9.089a4.255,4.255,0,0,0,4.255-4.255V117.781a6.97,6.97,0,0,0-2.041-4.928Zm-3.031,5.223a1.915,1.915,0,0,1-2.708,0l-4.062-4.062a1.915,1.915,0,0,1,2.708-2.708l4.062,4.062A1.915,1.915,0,0,1,264.616,118.076Zm0,0" transform="translate(-230.509 -95.542)"/><path class="e" d="M172.332,73.668h8.432v3.284h-8.432Zm0,0" transform="translate(-154.964 -66.244)"/><path class="f" d="M183.934,243.78a4.513,4.513,0,1,0,9.026,0c0-2.492-4.513-9.268-4.513-9.268S183.934,241.287,183.934,243.78Zm0,0" transform="translate(-165.397 -210.877)"/><path class="g" d="M228.668,248.293h0a4.513,4.513,0,0,0,4.513-4.513c0-2.492-4.513-9.268-4.513-9.268Zm0,0" transform="translate(-205.622 -210.877)"/></svg>