<svg xmlns="http://www.w3.org/2000/svg" width="46.561" height="38.024" viewBox="0 0 46.561 38.024"><defs><style>.a{fill:#fff;}</style></defs><g transform="translate(0.008 -0.484)"><path class="a" d="M383.984,104.473h1.552v3.1h-1.552Zm0,0" transform="translate(-346.743 -93.901)"/><path class="a" d="M351.984,104.473h1.552v3.1h-1.552Zm0,0" transform="translate(-317.847 -93.901)"/><path class="a" d="M319.984,104.473h1.552v3.1h-1.552Zm0,0" transform="translate(-288.952 -93.901)"/><path class="a" d="M287.984,104.473h1.552v3.1h-1.552Zm0,0" transform="translate(-260.056 -93.901)"/><path class="a" d="M383.984,256.473h1.552v1.552h-1.552Zm0,0" transform="translate(-346.743 -231.156)"/><path class="a" d="M351.984,256.473h1.552v1.552h-1.552Zm0,0" transform="translate(-317.847 -231.156)"/><path class="a" d="M319.984,256.473h1.552v1.552h-1.552Zm0,0" transform="translate(-288.952 -231.156)"/><path class="a" d="M287.984,256.473h1.552v1.552h-1.552Zm0,0" transform="translate(-260.056 -231.156)"/><path class="a" d="M2.319,22.93v4.715a3.885,3.885,0,0,0,3.88,3.88H20.229l13.813,6.629a3.609,3.609,0,0,0,4.82-1.707l2.4-5.044a3.879,3.879,0,0,0,2.964-3.757V25.174L46.2,21.025a3.634,3.634,0,0,0-1.7-4.832l-.274-.131V10.572a3.885,3.885,0,0,0-3.88-3.88H24.7L12.5.839a3.61,3.61,0,0,0-4.82,1.707l-2,4.2a3.874,3.874,0,0,0-3.367,3.828v3.246L.344,17.967a3.634,3.634,0,0,0,1.7,4.832Zm41.906-5.081a2.078,2.078,0,0,1,.573,2.509l-.573,1.2ZM37.458,35.775a2.055,2.055,0,0,1-2.746.976l-10.9-5.227H39.484Zm5.215-8.131a2.328,2.328,0,0,1-2.328,2.328H14.736V21a9.25,9.25,0,0,0,6.424,2.584V22.03a7.71,7.71,0,0,1-5.346-2.146H42.673ZM15.459,17.85l1.527-3.837a1.764,1.764,0,1,1,2.289,2.3ZM40.345,8.244a2.328,2.328,0,0,1,2.328,2.328v7.76H18.423l1.431-.574a3.321,3.321,0,1,0-4.309-4.32l-.81,2.034V8.244ZM9.086,3.214a2.054,2.054,0,0,1,2.746-.976l9.281,4.454H7.431ZM3.871,10.572A2.328,2.328,0,0,1,6.2,8.244h6.984V14.93l-.595-1.493a3.316,3.316,0,1,0-4.308,4.32l1.43.574H3.871Zm8.806,7.278L8.86,16.314a1.769,1.769,0,1,1,2.288-2.3ZM3.871,19.884h8.45A7.71,7.71,0,0,1,6.975,22.03v1.552A9.245,9.245,0,0,0,13.184,21.2v8.777H6.2a2.328,2.328,0,0,1-2.328-2.328ZM1.747,18.635l.573-1.2v3.713A2.077,2.077,0,0,1,1.747,18.635Zm0,0" transform="translate(0 0)"/></g></svg>