<svg xmlns="http://www.w3.org/2000/svg" width="31.333" height="31.333" viewBox="0 0 31.333 31.333"><defs><style>.a{fill:#fff;}</style></defs><path class="a" d="M16.891,8.445V15.16l4.456,4.456a1.224,1.224,0,0,1-1.731,1.731L14.8,16.532a1.224,1.224,0,0,1-.358-.865V8.445a1.224,1.224,0,1,1,2.448,0ZM20.481,0H10.852A10.815,10.815,0,0,0,3.736,2.661V1.224a1.224,1.224,0,1,0-2.448,0V6.038A1.227,1.227,0,0,0,2.512,7.262H7.326a1.224,1.224,0,1,0,0-2.448H5.011a8.433,8.433,0,0,1,5.841-2.366h9.628a8.414,8.414,0,0,1,8.4,8.4v9.628a8.414,8.414,0,0,1-8.4,8.4H10.852a8.414,8.414,0,0,1-8.4-8.4V15.667a1.224,1.224,0,1,0-2.448,0v4.814A10.865,10.865,0,0,0,10.852,31.333h9.628A10.865,10.865,0,0,0,31.333,20.481V10.852A10.865,10.865,0,0,0,20.481,0Z"/></svg>