<svg xmlns="http://www.w3.org/2000/svg" width="24.667" height="24.667" viewBox="0 0 24.667 24.667"><defs><style>.a{fill:#1a3365;}</style></defs><g transform="translate(5.139 5.139)"><path class="a" d="M13.736,24.528H10.653a1.669,1.669,0,0,1-1.542-1.85V20.52a3.569,3.569,0,0,0-1.336-2.672A7.1,7.1,0,0,1,5,12.092,7.314,7.314,0,0,1,12.092,5a7.223,7.223,0,0,1,5.139,2.056,7.317,7.317,0,0,1,2.158,5.139,6.912,6.912,0,0,1-2.672,5.55,3.753,3.753,0,0,0-1.439,2.878v2.364a1.581,1.581,0,0,1-1.542,1.542Zm-1.542-18.5a6.3,6.3,0,0,0-6.167,6.064,6.041,6.041,0,0,0,2.364,4.933,4.479,4.479,0,0,1,1.747,3.494v2.158c0,.206,0,.822.514.822h3.083a.486.486,0,0,0,.514-.514V20.622a5,5,0,0,1,1.85-3.7,5.993,5.993,0,0,0,2.261-4.728,6.144,6.144,0,0,0-1.85-4.419,6.058,6.058,0,0,0-4.317-1.747Z" transform="translate(-5 -5)"/></g><g transform="translate(9.25 20.556)"><path class="a" d="M14.653,21.028H9.514a.514.514,0,1,1,0-1.028h5.139a.514.514,0,1,1,0,1.028Z" transform="translate(-9 -20)"/></g><g transform="translate(11.82)"><path class="a" d="M12.014,3.083a.486.486,0,0,1-.514-.514V.514a.514.514,0,0,1,1.028,0V2.569A.486.486,0,0,1,12.014,3.083Z" transform="translate(-11.5)"/></g><g transform="translate(18.654 3.546)"><path class="a" d="M18.715,5.865a.618.618,0,0,1-.411-.1.5.5,0,0,1,0-.719L19.743,3.6a.509.509,0,1,1,.719.719L19.024,5.763a1.035,1.035,0,0,1-.308.1Z" transform="translate(-18.15 -3.45)"/></g><g transform="translate(21.584 11.82)"><path class="a" d="M23.569,12.528H21.514a.514.514,0,0,1,0-1.028h2.056a.514.514,0,0,1,0,1.028Z" transform="translate(-21 -11.5)"/></g><g transform="translate(18.654 18.757)"><path class="a" d="M20.154,20.665a.618.618,0,0,1-.411-.1L18.3,19.124a.509.509,0,1,1,.719-.719l1.439,1.439a.5.5,0,0,1,0,.719c0,.1-.1.1-.308.1Z" transform="translate(-18.15 -18.25)"/></g><g transform="translate(3.443 18.757)"><path class="a" d="M3.915,20.665a.618.618,0,0,1-.411-.1.5.5,0,0,1,0-.719L4.943,18.4a.509.509,0,1,1,.719.719L4.224,20.563a.378.378,0,0,1-.308.1Z" transform="translate(-3.35 -18.25)"/></g><g transform="translate(0 11.82)"><path class="a" d="M2.569,12.528H.514a.514.514,0,1,1,0-1.028H2.569a.514.514,0,1,1,0,1.028Z" transform="translate(0 -11.5)"/></g><g transform="translate(3.443 3.443)"><path class="a" d="M5.354,5.868a.618.618,0,0,1-.411-.1L3.5,4.224A.509.509,0,1,1,4.224,3.5L5.663,4.943a.5.5,0,0,1,0,.719c-.1.1-.206.206-.308.206Z" transform="translate(-3.35 -3.35)"/></g><g transform="translate(11.82 7.708)"><path class="a" d="M16.125,12.639a.486.486,0,0,1-.514-.514,3.642,3.642,0,0,0-3.6-3.6.514.514,0,1,1,0-1.028,4.606,4.606,0,0,1,4.625,4.625A.486.486,0,0,1,16.125,12.639Z" transform="translate(-11.5 -7.5)"/></g></svg>