<svg xmlns="http://www.w3.org/2000/svg" width="24.332" height="23.274" viewBox="0 0 24.332 23.274"><defs><style>.a{fill:#f10a0a;}</style></defs><g transform="translate(0 -0.332)"><path class="a" d="M165.465,220.587h-15.34a.793.793,0,0,1,0-1.587h15.34a.793.793,0,0,1,0,1.587Zm0,0" transform="translate(-141.927 -207.824)"/><path class="a" d="M154.365,143.7a.787.787,0,0,1-.561-.233l-4.232-4.232a.794.794,0,0,1,0-1.123l4.232-4.232a.794.794,0,1,1,1.123,1.122l-3.671,3.671,3.671,3.671a.793.793,0,0,1-.562,1.354Zm0,0" transform="translate(-141.934 -126.709)"/><path class="a" d="M11.637,23.606A11.637,11.637,0,1,1,22.468,7.712a.793.793,0,1,1-1.477.581,10.05,10.05,0,1,0,0,7.354.793.793,0,1,1,1.477.581,11.578,11.578,0,0,1-10.831,7.379Zm0,0" transform="translate(0 0)"/></g></svg>