<svg xmlns="http://www.w3.org/2000/svg" width="50.373" height="52" viewBox="0 0 50.373 52"><defs><style>.a{fill:#1a3365;}</style></defs><g transform="translate(-8.008 0)"><g transform="translate(8.008 0)"><g transform="translate(0)"><path class="a" d="M56.716,30.458h-.778V23.449a3.291,3.291,0,0,0-1.4-2.689v-.954a2.513,2.513,0,0,0-2.511-2.511H51.45l2.223-3.262a2.4,2.4,0,0,0-.632-3.335L37.956.418a2.4,2.4,0,0,0-3.335.632L21.6,20.156H17.978l.874-8.849a.262.262,0,0,1,.165-.22,5.633,5.633,0,0,0,2.748-2.233.261.261,0,0,1,.246-.116l5.683.561a.741.741,0,1,0,.146-1.475l-5.683-.561a1.734,1.734,0,0,0-1.642.795A4.141,4.141,0,0,1,18.494,9.7a1.732,1.732,0,0,0-1.117,1.461l-.888,8.995h-.945l1.382-14a.918.918,0,0,1,1-.823L29.414,6.471A.741.741,0,1,0,29.56,5L18.076,3.862a2.4,2.4,0,0,0-2.624,2.152L14.337,17.295h-1.9a2.513,2.513,0,0,0-2.511,2.511v.651a3.3,3.3,0,0,0-1.921,2.993V48.707A3.3,3.3,0,0,0,11.3,52H52.644a3.3,3.3,0,0,0,3.293-3.293V41.7h.778a1.668,1.668,0,0,0,1.666-1.666V32.124A1.667,1.667,0,0,0,56.716,30.458ZM52.031,18.777h0a1.03,1.03,0,0,1,1.029,1.029v.378a3.3,3.3,0,0,0-.416-.027H49.5l.94-1.379ZM35.846,1.884a.912.912,0,0,1,.588-.385.931.931,0,0,1,.173-.016.912.912,0,0,1,.515.16l15.085,10.28a.919.919,0,0,1,.242,1.276l-4.742,6.958H46.569l2.325-3.411a1.732,1.732,0,0,0,.081-1.837,4.141,4.141,0,0,1-.5-2.556,1.733,1.733,0,0,0-.75-1.663l-7.82-5.329a1.733,1.733,0,0,0-1.822-.089,4.142,4.142,0,0,1-2.56.473,1.754,1.754,0,0,0-1.681.747L24.532,20.156H23.395Zm.326,12.583a6.114,6.114,0,0,0-6.091,5.689H26.326L35.07,7.324h0a.265.265,0,0,1,.217-.116l.034,0A5.634,5.634,0,0,0,38.8,6.567a.261.261,0,0,1,.271.017l7.82,5.329a.262.262,0,0,1,.115.246,5.632,5.632,0,0,0,.675,3.476.263.263,0,0,1-.015.275l-2.893,4.246H42.264A6.114,6.114,0,0,0,36.173,14.467Zm4.606,5.689H31.567a4.624,4.624,0,0,1,9.211,0Zm-29.367-.35a1.03,1.03,0,0,1,1.029-1.029h1.751l-.136,1.379H11.411ZM9.49,23.449A1.813,1.813,0,0,1,11.3,21.638H52.644a1.813,1.813,0,0,1,1.811,1.811v2.056H9.49ZM54.456,48.707a1.813,1.813,0,0,1-1.811,1.811H11.3A1.813,1.813,0,0,1,9.49,48.707V46.651h4a.741.741,0,0,0,0-1.482h-4V26.987H54.456v3.471H47.411a5.626,5.626,0,0,0-5.055,3.167l-.01.019c-.008.016-.014.033-.022.049a5.587,5.587,0,0,0-.28.716v0A5.621,5.621,0,0,0,47.41,41.7h7.045v3.471H18.23a.741.741,0,0,0,0,1.482H54.456ZM56.9,40.032a.184.184,0,0,1-.184.184h-9.3a4.142,4.142,0,0,1-3.638-2.167q-.048-.088-.092-.178-.087-.181-.157-.371a4.142,4.142,0,0,1,0-2.843q.07-.19.157-.371.044-.09.092-.178a4.142,4.142,0,0,1,3.638-2.167h9.3a.184.184,0,0,1,.184.184v7.908Z" transform="translate(-8.008 0)"/></g></g><g transform="translate(44.578 33.072)"><path class="a" d="M371.087,325.627a3.006,3.006,0,1,0,3.006,3.006A3.01,3.01,0,0,0,371.087,325.627Zm0,4.531a1.524,1.524,0,1,1,1.524-1.524A1.526,1.526,0,0,1,371.087,330.158Z" transform="translate(-368.081 -325.627)"/></g></g></svg>