<svg xmlns="http://www.w3.org/2000/svg" width="28.666" height="28.666" viewBox="0 0 28.666 28.666"><defs><style>.a{fill:#1a3365;}</style></defs><g transform="translate(-16 -16)"><path class="a" d="M44.188,18.867H42.755v-.478a.478.478,0,0,0-.478-.478H38.933v-.478a1.433,1.433,0,0,0-2.867,0v.478h-.956v-.478a1.433,1.433,0,0,0-2.867,0v.478H26.511v-.478a1.433,1.433,0,0,0-2.867,0v.478h-.956v-.478a1.433,1.433,0,1,0-2.867,0v.478H16.478a.478.478,0,0,0-.478.478V42.277a.478.478,0,0,0,.478.478h.478v1.433a.478.478,0,0,0,.478.478H44.188a.478.478,0,0,0,.478-.478V19.344A.478.478,0,0,0,44.188,18.867ZM16.956,41.8V24.6H41.8V41.8ZM37.022,17.433a.478.478,0,1,1,.956,0v.478h-.956Zm-3.822,0a.478.478,0,0,1,.956,0v.478H33.2Zm-8.6,0a.478.478,0,0,1,.956,0v.478H24.6Zm-3.822,0a.478.478,0,1,1,.956,0v.478h-.956Zm-.956,1.433v.478a1.435,1.435,0,0,0,1.433,1.433.478.478,0,0,0,0-.956.478.478,0,0,1-.478-.478v-.478h2.867v.478a1.435,1.435,0,0,0,1.433,1.433.478.478,0,0,0,0-.956.478.478,0,0,1-.478-.478v-.478h7.644v.478a1.435,1.435,0,0,0,1.433,1.433.478.478,0,0,0,0-.956.478.478,0,0,1-.478-.478v-.478h2.867v.478A1.435,1.435,0,0,0,37.5,20.778a.478.478,0,1,0,0-.956.478.478,0,0,1-.478-.478v-.478H41.8v4.778H16.956V18.867ZM43.71,43.71h-25.8v-.956H42.277a.478.478,0,0,0,.478-.478V19.822h.956Z"/><path class="a" d="M141.733,223.64a2.866,2.866,0,0,0-1.284-2.389,2.866,2.866,0,1,0-4.45-2.389.478.478,0,0,0,.956,0,1.911,1.911,0,1,1,1.911,1.911.478.478,0,0,0,0,.956,1.911,1.911,0,1,1-1.911,1.911.478.478,0,0,0-.956,0,2.867,2.867,0,1,0,5.733,0Z" transform="translate(-112.833 -188.051)"/><path class="a" d="M250.867,226.511a2.87,2.87,0,0,0,2.867-2.867v-4.778a2.867,2.867,0,1,0-5.733,0v4.778a2.87,2.87,0,0,0,2.867,2.867Zm-1.911-7.644a1.911,1.911,0,0,1,3.822,0v4.778a1.911,1.911,0,0,1-3.822,0Z" transform="translate(-218.145 -188.056)"/></g></svg>