<svg xmlns="http://www.w3.org/2000/svg" width="47.2" height="47.2" viewBox="0 0 47.2 47.2"><defs><style>.a{fill:#cadcff;}.b{fill:#473080;}.c{fill:#382b73;}.d{fill:#d1d3d4;}.e{fill:#fff;}.f{fill:#ef5a9d;}.g{fill:#e43d91;}.h{fill:#e6e7e8;}.i{fill:#1caee4;}.j{fill:#009add;}.k{fill:#f7cb15;}.l{fill:#fede3a;}.m{fill:#e7ad27;}.n{fill:#27c1e6;}</style></defs><g transform="translate(-8.6 -8.6)"><g transform="translate(8.6 8.6)"><circle class="a" cx="23.6" cy="23.6" r="23.6" transform="translate(0 0)"/><circle class="b" cx="20.418" cy="20.418" r="20.418" transform="translate(3.182 3.182)"/></g><path class="c" d="M104.051,78.885V76.259a.692.692,0,0,0-.692-.692V71.174a1.186,1.186,0,0,0-1.186-1.186H88.436a1.186,1.186,0,0,0-1.186,1.186V95.293a1.186,1.186,0,0,0,1.186,1.186h13.737a1.186,1.186,0,0,0,1.186-1.186V84.551a.692.692,0,0,0,.692-.692V81.234a.692.692,0,0,0-.692-.692v-.965A.692.692,0,0,0,104.051,78.885Z" transform="translate(-63.104 -49.254)"/><g transform="translate(24.146 19.35)"><g transform="translate(0)"><path class="d" d="M102.173,92.688H88.436A1.186,1.186,0,0,1,87.25,91.5V68.174a1.186,1.186,0,0,1,1.186-1.186h13.737a1.186,1.186,0,0,1,1.186,1.186V91.5A1.186,1.186,0,0,1,102.173,92.688Z" transform="translate(-87.25 -66.197)"/><path class="e" d="M102.173,88.688H88.436A1.186,1.186,0,0,1,87.25,87.5V64.174a1.186,1.186,0,0,1,1.186-1.186h13.737a1.186,1.186,0,0,1,1.186,1.186V87.5A1.186,1.186,0,0,1,102.173,88.688Z" transform="translate(-87.25 -62.988)"/><path class="f" d="M106.5,95.044H94.541a.791.791,0,0,1-.791-.791V74.291a.791.791,0,0,1,.791-.791H106.5a.791.791,0,0,1,.791.791V94.254A.791.791,0,0,1,106.5,95.044Z" transform="translate(-92.465 -71.422)"/><path class="g" d="M106.5,73.5H94.541a.791.791,0,0,0-.791.791v.791a.791.791,0,0,1,.791-.791H106.5a.791.791,0,0,1,.791.791v-.791A.791.791,0,0,0,106.5,73.5Z" transform="translate(-92.465 -71.422)"/><path class="g" d="M124.1,186.567h-1.631a.346.346,0,0,1-.346-.346h0a.346.346,0,0,1,.346-.346H124.1a.346.346,0,0,1,.346.346h0A.346.346,0,0,1,124.1,186.567Z" transform="translate(-115.232 -161.586)"/><path class="g" d="M145.353,66.411a.474.474,0,1,1-.474-.474A.474.474,0,0,1,145.353,66.411Z" transform="translate(-133.109 -65.354)"/><path class="d" d="M168.75,95.225h0V91.216h0a.692.692,0,0,1,.692.692v2.626A.692.692,0,0,1,168.75,95.225Z" transform="translate(-152.641 -85.637)"/><path class="d" d="M168.75,120.392h0v-4.009h0a.692.692,0,0,1,.692.692V119.7A.692.692,0,0,1,168.75,120.392Z" transform="translate(-152.641 -105.829)"/><path class="h" d="M89.325,86.61a.791.791,0,0,1-.791-.791V65.856a.791.791,0,0,1,.791-.791h.4V62.988H88.436a1.186,1.186,0,0,0-1.186,1.186V87.5a1.186,1.186,0,0,0,1.186,1.186h1.285V86.61Z" transform="translate(-87.25 -62.988)"/><path class="g" d="M94.936,73.5h-.4a.791.791,0,0,0-.791.791V94.254a.791.791,0,0,0,.791.791h.4Z" transform="translate(-92.465 -71.422)"/><g transform="translate(13.636)"><path class="h" d="M156.633,86.61a.791.791,0,0,0,.791-.791V65.856a.791.791,0,0,0-.791-.791h-.4V62.988h1.285a1.186,1.186,0,0,1,1.186,1.186V87.5a1.186,1.186,0,0,1-1.186,1.186h-1.285V86.61Z" transform="translate(-156.238 -62.988)"/><path class="g" d="M156.237,73.5h.4a.791.791,0,0,1,.791.791V94.254a.791.791,0,0,1-.791.791h-.4Z" transform="translate(-156.237 -71.422)"/></g></g><path class="g" d="M114.235,154.068h-6.9a.791.791,0,0,1-.791-.791v-1.112a.791.791,0,0,1,.791-.791h6.9a.791.791,0,0,1,.791.791v1.112A.791.791,0,0,1,114.235,154.068Z" transform="translate(-102.73 -133.905)"/><path class="e" d="M114.235,152.068h-6.9a.791.791,0,0,1-.791-.791v-1.112a.791.791,0,0,1,.791-.791h6.9a.791.791,0,0,1,.791.791v1.112A.791.791,0,0,1,114.235,152.068Z" transform="translate(-102.73 -132.3)"/><path class="h" d="M114.235,157.478h-6.9a.791.791,0,0,1-.791-.791v.457a.791.791,0,0,0,.791.791h6.9a.791.791,0,0,0,.791-.791v-.457A.791.791,0,0,1,114.235,157.478Z" transform="translate(-102.73 -138.167)"/><path class="g" d="M130.591,163h-2.237l.11,1.031a.415.415,0,0,0,.178.3.422.422,0,0,0,.542-.048l.392-.392.045-.045,1.223,1.223a.638.638,0,0,0,1-.113l0-.007a.64.64,0,0,0,.057-.122h0a.64.64,0,0,0-.15-.666Z" transform="translate(-120.23 -143.232)"/><path class="d" d="M130.1,157.117l.437-.437a.423.423,0,0,0-.254-.72l-2-.214a.42.42,0,0,0-.154.014l-.006,0a.421.421,0,0,0-.07.027l-.012.006a.428.428,0,0,0-.057.036l-.017.014a.4.4,0,0,0-.043.041c-.007.008-.014.017-.02.025a.406.406,0,0,0-.029.042.382.382,0,0,0-.019.038.4.4,0,0,0-.017.04.407.407,0,0,0-.013.054c0,.011-.006.022-.007.033a.425.425,0,0,0,0,.092h0l.1.967h2.237Z" transform="translate(-119.8 -137.41)"/><g transform="translate(8.018 17.74)"><g transform="translate(0 0)"><path class="i" d="M130.537,153.678l-1.783,1.783a.423.423,0,0,1-.72-.254l-.214-2a.423.423,0,0,1,.466-.466l2,.214A.423.423,0,0,1,130.537,153.678Z" transform="translate(-127.818 -152.742)"/></g><path class="i" d="M136.9,161.821h0a.642.642,0,0,1-.908,0l-1.223-1.223.908-.908,1.223,1.223A.642.642,0,0,1,136.9,161.821Z" transform="translate(-133.393 -158.317)"/><g transform="translate(0 0.003)"><path class="j" d="M128.427,154.827l-.214-2a.406.406,0,0,1,0-.073.422.422,0,0,0-.393.465l.214,2a.423.423,0,0,0,.72.254l.392-.392A.423.423,0,0,1,128.427,154.827Z" transform="translate(-127.819 -152.757)"/><path class="j" d="M136.382,163.525l-1.223-1.223-.392.392,1.223,1.223a.642.642,0,0,0,.908,0,.636.636,0,0,0,.15-.242A.64.64,0,0,1,136.382,163.525Z" transform="translate(-133.394 -160.415)"/></g></g><path class="g" d="M115.025,97.134V90a.678.678,0,0,0-.674-.674h-7.134a.674.674,0,0,0-.674.674v.632h0v5.632h0v.871a.674.674,0,0,0,.674.674h-.354a.32.32,0,0,0-.32.32v.5a.32.32,0,0,0,.32.32h.191a.934.934,0,1,0,1.867,0h3.611a.934.934,0,0,0,1.868,0h.253a.32.32,0,0,0,.32-.32v-.5a.32.32,0,0,0-.32-.32h-.3A.674.674,0,0,0,115.025,97.134Z" transform="translate(-102.73 -84.12)"/><g transform="translate(3.813 4.613)"><g transform="translate(0)"><path class="k" d="M114.352,86.326h-7.134a.674.674,0,0,0-.674.674v7.134a.674.674,0,0,0,.674.674h7.134a.674.674,0,0,0,.674-.674V87A.674.674,0,0,0,114.352,86.326Z" transform="translate(-106.544 -86.326)"/><path class="l" d="M114.352,86.326h-7.134a.674.674,0,0,0-.674.674v.632a.674.674,0,0,1,.674-.674h7.134a.674.674,0,0,1,.674.674V87A.674.674,0,0,0,114.352,86.326Z" transform="translate(-106.544 -86.326)"/><path class="m" d="M114.352,122.1h-7.134a.674.674,0,0,1-.674-.674v.871a.674.674,0,0,0,.674.674h7.134a.674.674,0,0,0,.674-.674v-.871A.674.674,0,0,1,114.352,122.1Z" transform="translate(-106.544 -114.487)"/><path class="m" d="M124.383,90.221h-.576a.674.674,0,0,1-.674-.674V86.326h1.924v3.221A.674.674,0,0,1,124.383,90.221Z" transform="translate(-119.854 -86.326)"/><rect class="k" width="1.924" height="0.632" transform="translate(3.279)"/><path class="l" d="M137.11,115.392h-1.615a.225.225,0,0,1-.225-.225v-.955a.225.225,0,0,1,.225-.225h1.615a.225.225,0,0,1,.225.225v.955A.225.225,0,0,1,137.11,115.392Z" transform="translate(-129.592 -108.52)"/><path class="l" d="M111.242,119.212h-1.6a.232.232,0,0,1-.232-.232h0a.232.232,0,0,1,.232-.232h1.6a.232.232,0,0,1,.232.232h0A.232.232,0,0,1,111.242,119.212Z" transform="translate(-108.843 -112.34)"/><path class="l" d="M111.242,115.02h-1.6a.232.232,0,0,1-.232-.232h0a.232.232,0,0,1,.232-.232h1.6a.232.232,0,0,1,.232.232h0A.232.232,0,0,1,111.242,115.02Z" transform="translate(-108.843 -108.977)"/></g><g transform="translate(0 8.482)"><path class="n" d="M114.654,130.383h-7.791a.32.32,0,0,1-.32-.32v-.5a.32.32,0,0,1,.32-.32h7.791a.32.32,0,0,1,.32.32v.5A.32.32,0,0,1,114.654,130.383Z" transform="translate(-106.543 -129.24)"/><path class="j" d="M114.654,132.479h-7.791a.32.32,0,0,1-.32-.32v.246a.32.32,0,0,0,.32.32h7.791a.32.32,0,0,0,.32-.32v-.246A.32.32,0,0,1,114.654,132.479Z" transform="translate(-106.543 -131.582)"/><g transform="translate(0.511 0.209)"><circle class="i" cx="0.934" cy="0.934" r="0.934"/><circle class="e" cx="0.516" cy="0.516" r="0.516" transform="translate(0.418 0.418)"/><path class="d" d="M113.021,133.916a.272.272,0,1,1-.272-.272A.272.272,0,0,1,113.021,133.916Z" transform="translate(-111.815 -132.983)"/></g><g transform="translate(5.99 0.209)"><circle class="i" cx="0.934" cy="0.934" r="0.934"/><circle class="e" cx="0.516" cy="0.516" r="0.516" transform="translate(0.418 0.418)"/><path class="d" d="M140.738,133.916a.272.272,0,1,1-.272-.272A.272.272,0,0,1,140.738,133.916Z" transform="translate(-139.532 -132.983)"/></g></g></g></g></g></svg>