<svg xmlns="http://www.w3.org/2000/svg" width="22.705" height="30.273" viewBox="0 0 22.705 30.273"><defs><style>.a{fill:#1a3365;}</style></defs><g transform="translate(0)"><path class="a" d="M214.365,281.885l-.4,3.578a.631.631,0,0,0,.627.7h2.523a.631.631,0,0,0,.627-.7l-.4-3.578a2.5,2.5,0,0,0,1.032-2.029,2.523,2.523,0,1,0-5.046,0A2.5,2.5,0,0,0,214.365,281.885Zm1.49-3.29a1.257,1.257,0,0,1,.544,2.392.631.631,0,0,0-.352.637l.365,3.277H215.3l.365-3.277a.631.631,0,0,0-.352-.637,1.257,1.257,0,0,1,.544-2.392Z" transform="translate(-204.503 -260.935)"/><path class="a" d="M86.074,11.352H84.182V8.83a8.83,8.83,0,1,0-17.659,0v2.523H64.631a.63.63,0,0,0-.631.631V27.75a2.525,2.525,0,0,0,2.523,2.523H84.182A2.525,2.525,0,0,0,86.7,27.75V11.983A.63.63,0,0,0,86.074,11.352ZM67.784,8.83a7.568,7.568,0,0,1,15.137,0v2.523H81.659V8.83a6.307,6.307,0,0,0-12.614,0v2.523H67.784Zm12.614,0v2.523H70.307V8.83a5.045,5.045,0,1,1,10.091,0ZM85.443,27.75a1.263,1.263,0,0,1-1.261,1.261H66.523a1.263,1.263,0,0,1-1.261-1.261V12.614H85.443Z" transform="translate(-64)"/></g></svg>