<svg xmlns="http://www.w3.org/2000/svg" width="10.167" height="13.556" viewBox="0 0 10.167 13.556"><defs><style>.a{fill:#1a3365;}</style></defs><g transform="translate(0)"><path class="a" d="M213.8,279.371l-.178,1.6a.282.282,0,0,0,.281.314h1.13a.282.282,0,0,0,.281-.314l-.178-1.6a1.117,1.117,0,0,0,.462-.909,1.13,1.13,0,1,0-2.259,0A1.117,1.117,0,0,0,213.8,279.371Zm.667-1.473a.563.563,0,0,1,.244,1.071.283.283,0,0,0-.158.285l.163,1.468h-.5l.163-1.468a.283.283,0,0,0-.158-.285.563.563,0,0,1,.244-1.071Z" transform="translate(-209.379 -269.99)"/><path class="a" d="M73.885,5.084h-.847V3.954a3.954,3.954,0,0,0-7.908,0v1.13h-.847A.282.282,0,0,0,64,5.366v7.061a1.131,1.131,0,0,0,1.13,1.13h7.908a1.131,1.131,0,0,0,1.13-1.13V5.366A.282.282,0,0,0,73.885,5.084Zm-8.19-1.13a3.389,3.389,0,1,1,6.778,0v1.13h-.565V3.954a2.824,2.824,0,0,0-5.649,0v1.13h-.565Zm5.648,0v1.13H66.824V3.954a2.259,2.259,0,1,1,4.519,0ZM73.6,12.427a.566.566,0,0,1-.565.565H65.13a.566.566,0,0,1-.565-.565V5.648H73.6Z" transform="translate(-64)"/></g></svg>