<svg xmlns="http://www.w3.org/2000/svg" width="33.667" height="14.549" viewBox="0 0 33.667 14.549"><defs><style>.a{fill:#1a3365;}</style></defs><g transform="translate(0 -145.37)"><g transform="translate(0 145.37)"><g transform="translate(0 0)"><path class="a" d="M30.891,145.37H2.776A2.779,2.779,0,0,0,0,148.146v5.623a2.779,2.779,0,0,0,2.776,2.776H21.894a.527.527,0,0,0,0-1.054H2.776a1.724,1.724,0,0,1-1.722-1.722v-5.623a1.724,1.724,0,0,1,1.722-1.722H30.891a1.724,1.724,0,0,1,1.722,1.722v2.811a.527.527,0,0,0,1.054,0v-2.811A2.779,2.779,0,0,0,30.891,145.37Z" transform="translate(0 -145.37)"/></g></g><g transform="translate(23.616 147.619)"><g transform="translate(0 0)"><path class="a" d="M366.951,184.159v-1.246a3.339,3.339,0,0,0-6.677,0v1.246a1.654,1.654,0,0,0-1.125,1.565v1.687a4.463,4.463,0,1,0,8.926,0v-1.687A1.654,1.654,0,0,0,366.951,184.159Zm-5.623-1.246a2.284,2.284,0,1,1,4.569,0v1.16h-4.569Zm5.693,4.5a3.409,3.409,0,1,1-6.818,0v-1.687a.6.6,0,0,1,.6-.6h5.623a.6.6,0,0,1,.6.6v1.687Z" transform="translate(-359.149 -179.574)"/></g></g><g transform="translate(26.99 154.367)"><path class="a" d="M411.544,282.188a1.089,1.089,0,0,0-.527,2.042v.365a.527.527,0,1,0,1.054,0v-.365a1.089,1.089,0,0,0-.527-2.042Z" transform="translate(-410.455 -282.188)"/></g><g transform="translate(10.985 148.181)"><g transform="translate(0 0)"><path class="a" d="M171.739,191.568l-1.157-.668,1.157-.668a.527.527,0,0,0-.527-.913l-1.157.668v-1.336a.527.527,0,1,0-1.054,0v1.336l-1.157-.668a.527.527,0,0,0-.527.913l1.157.668-1.157.668a.527.527,0,1,0,.527.913l1.157-.668v1.336a.527.527,0,1,0,1.054,0v-1.336l1.157.668a.527.527,0,0,0,.527-.913Z" transform="translate(-167.053 -188.124)"/></g></g><g transform="translate(4.237 148.181)"><g transform="translate(0 0)"><path class="a" d="M69.125,191.568l-1.157-.668,1.157-.668a.527.527,0,1,0-.527-.913l-1.157.668v-1.336a.527.527,0,0,0-1.054,0v1.336l-1.157-.668a.527.527,0,1,0-.527.913l1.157.668-1.157.668a.527.527,0,1,0,.527.913l1.157-.668v1.336a.527.527,0,0,0,1.054,0v-1.336l1.157.668a.527.527,0,1,0,.527-.913Z" transform="translate(-64.438 -188.124)"/></g></g><g transform="translate(17.732 148.181)"><g transform="translate(0 0)"><path class="a" d="M274.353,191.568,273.2,190.9l1.157-.668a.527.527,0,1,0-.527-.913l-1.157.668v-1.336a.527.527,0,0,0-1.054,0v1.336l-1.157-.668a.527.527,0,0,0-.527.913l1.157.668-1.157.668a.527.527,0,1,0,.527.913l1.157-.668v1.336a.527.527,0,0,0,1.054,0v-1.336l1.157.668a.527.527,0,0,0,.527-.913Z" transform="translate(-269.666 -188.124)"/></g></g></g></svg>