<svg xmlns="http://www.w3.org/2000/svg" width="14.999" height="15" viewBox="0 0 14.999 15"><defs><style>.a{fill:#1a3365;}</style></defs><g transform="translate(-0.011)"><g transform="translate(0.011 0)"><path class="a" d="M14.624,11.063,12.759,9.2a1.32,1.32,0,0,0-1.865,0l-.848.848a1,1,0,0,1-1.413,0L4.961,6.369a1,1,0,0,1,0-1.413l.848-.848a1.318,1.318,0,0,0,0-1.865L3.944.386a1.32,1.32,0,0,0-1.863,0L1.4,1.058a4.76,4.76,0,0,0,0,6.724l5.821,5.824a4.752,4.752,0,0,0,6.724,0l.678-.678A1.32,1.32,0,0,0,14.624,11.063ZM2.7,1.007a.44.44,0,0,1,.622,0L5.187,2.866a.439.439,0,0,1,0,.622L4.876,3.8,2.391,1.314ZM7.844,12.984,2.023,7.16A3.864,3.864,0,0,1,1.78,1.946L4.258,4.423a1.876,1.876,0,0,0,.082,2.568l3.674,3.677h0a1.876,1.876,0,0,0,2.568.082l2.477,2.477A3.857,3.857,0,0,1,7.844,12.984ZM14,12.306l-.311.311-2.486-2.486.311-.311a.44.44,0,0,1,.622,0L14,11.685A.44.44,0,0,1,14,12.306Z" transform="translate(-0.011 0)"/></g></g></svg>