<svg xmlns="http://www.w3.org/2000/svg" width="22.382" height="22.013" viewBox="0 0 22.382 22.013"><defs><style>.a{fill:#c8c8c8;stroke:#c8c8c8;stroke-width:0.5px;}</style></defs><g transform="translate(-11.781 -4.974)"><g transform="translate(12.045 5.246)"><g transform="translate(0 0)"><path class="a" d="M88.867,20.024c.9,1.269,1.8,2.4,2.394,3.135l.247.3h-1.8a.364.364,0,0,0,0,.728h5.828a.364.364,0,0,0,0-.728h-1.8l.247-.3c.6-.728,1.493-1.866,2.394-3.135a32,32,0,0,0,2.406-3.878,8.518,8.518,0,0,0,1.121-3.6,7.28,7.28,0,0,0-2.133-5.158.364.364,0,1,0-.515.515,6.554,6.554,0,0,1,1.92,4.643,7.852,7.852,0,0,1-1.042,3.273A31.28,31.28,0,0,1,95.787,19.6c-.888,1.253-1.776,2.375-2.364,3.1-.2.24-.372.452-.522.631a.369.369,0,0,1-.555,0c-.15-.179-.326-.391-.522-.631-.588-.721-1.476-1.843-2.364-3.1a31.281,31.281,0,0,1-2.352-3.788,7.841,7.841,0,0,1-1.042-3.273,6.558,6.558,0,0,1,9.11-6.05.364.364,0,0,0,.284-.671A7.288,7.288,0,0,0,85.34,12.542a8.532,8.532,0,0,0,1.121,3.606A31.979,31.979,0,0,0,88.867,20.024Z" transform="translate(-81.697 -5.246)"/><path class="a" d="M174.3,82.813a.364.364,0,1,0,0-.728,3.642,3.642,0,1,0,2.576,1.067.364.364,0,1,0-.515.515,2.914,2.914,0,1,1-2.061-.853Z" transform="translate(-163.375 -78.805)"/><path class="a" d="M21.717,368.262l-2.24-4.007a1.132,1.132,0,0,0-.991-.572h-2.6a.364.364,0,1,0,0,.728h2.6a.4.4,0,0,1,.356.2l2.239,4.007a.328.328,0,0,1,0,.337.4.4,0,0,1-.353.193H1.13a.4.4,0,0,1-.352-.193.328.328,0,0,1,0-.337l2.239-4.007a.4.4,0,0,1,.355-.2h2.6a.364.364,0,1,0,0-.728h-2.6a1.133,1.133,0,0,0-.992.572l-2.24,4.007a1.056,1.056,0,0,0,.011,1.06,1.122,1.122,0,0,0,.981.553h19.6a1.122,1.122,0,0,0,.981-.553A1.056,1.056,0,0,0,21.717,368.262Z" transform="translate(0 -348.384)"/><path class="a" d="M352.783,406.351h-1.457a.365.365,0,0,0-.2.061l-1.093.728a.364.364,0,1,0,.4.606l1-.667h1.348a.364.364,0,0,0,0-.729Z" transform="translate(-334.935 -389.23)"/><path class="a" d="M366.937,457.915a.364.364,0,0,0,.364.364h2.914a.364.364,0,1,0,0-.728H367.3A.364.364,0,0,0,366.937,457.915Z" transform="translate(-351.275 -438.245)"/><path class="a" d="M88.251,407.807a.364.364,0,0,0,.2-.667l-1.093-.728a.366.366,0,0,0-.2-.061H85.7a.364.364,0,1,0,0,.728h1.348l1,.667A.363.363,0,0,0,88.251,407.807Z" transform="translate(-81.695 -389.229)"/><path class="a" d="M60.1,457.551a.364.364,0,1,0,0,.728h2.914a.364.364,0,1,0,0-.728Z" transform="translate(-57.187 -438.245)"/></g></g></g></svg>