<svg xmlns="http://www.w3.org/2000/svg" width="27.409" height="27.395" viewBox="0 0 27.409 27.395"><defs><style>.a{fill:#1a3365;}</style></defs><path class="a" d="M21.615,7.919a7.919,7.919,0,1,0-12.4,6.525A13.718,13.718,0,0,0,0,27.394H2.14A11.57,11.57,0,0,1,13.7,15.837a7.928,7.928,0,0,0,7.919-7.919ZM13.7,13.7a5.778,5.778,0,1,1,5.778-5.778A5.785,5.785,0,0,1,13.7,13.7Zm13.712,5.992-5.037,5.037-1.513-1.513,2.507-2.507H21.509a4.661,4.661,0,0,0-4.654,4.651l0,2.038-2.14,0,0-2.038a6.8,6.8,0,0,1,6.795-6.789h1.749l-2.4-2.4,1.513-1.513Zm0,0" transform="translate(0)"/></svg>