<svg xmlns="http://www.w3.org/2000/svg" width="65.139" height="101.902" viewBox="0 0 65.139 101.902"><defs><style>.a{fill:#1f3465;}</style></defs><g transform="translate(0 -0.008)"><path class="a" d="M334.635,168.631h5.931c5.077-.027,8.823-3.622,8.868-8.5a8.576,8.576,0,0,0-8.883-8.672c-5.382-.033-10.764.021-16.146-.018a16.946,16.946,0,0,1-16.6-14.462,5.891,5.891,0,0,1,0-.724,12.822,12.822,0,0,1,1.289-.124c10.565,0,21.129-.1,31.694.021A23.892,23.892,0,0,1,364.781,161.6c-.471,8.938-7.054,17.848-15.412,20.791a1.686,1.686,0,0,1-1.443-.193c-4.377-4.3-8.7-8.654-13.031-13C334.783,169.1,334.765,168.948,334.635,168.631Z" transform="translate(-307.116 -136.08)"/><path class="a" d="M369.9,287.759q-21.036-21.129-42.1-42.2a3.063,3.063,0,0,0-1.953-.788c-6.438-.057-12.877-.036-19.318-.03-.3,0-.634.027-.975.054l15.183,15.183h.347v.356l28.869,28.851a15.885,15.885,0,0,0,7.012,3.049,16.677,16.677,0,0,0,13.728-3.6C370.363,288.278,370.143,288.007,369.9,287.759Z" transform="translate(-305.55 -211.929)"/><path class="a" d="M326.2,443.128l-2.626-3.776a4.917,4.917,0,0,1-.5.018h-2.913v3.755H317.77V430.236h5.3a7.141,7.141,0,0,1,2.919.552,4.244,4.244,0,0,1,1.9,1.585,4.43,4.43,0,0,1,.664,2.448,4.368,4.368,0,0,1-.709,2.505,4.226,4.226,0,0,1-2.034,1.564l2.964,4.226Zm-.866-10.2a3.7,3.7,0,0,0-2.364-.652h-2.807v5.131h2.807a3.642,3.642,0,0,0,2.376-.673,2.336,2.336,0,0,0,.809-1.9,2.309,2.309,0,0,0-.818-1.9Z" transform="translate(-314.081 -341.438)"/><path class="a" d="M372.039,441.132v2.007H362.38V430.25h9.409v2.007h-7.021v3.35h6.221v1.971h-6.221v3.553Z" transform="translate(-345.226 -341.45)"/><path class="a" d="M415.111,443.139l-.018-8.542-4.226,7.069H409.8l-4.226-6.961v8.434H403.29V430.25h1.971l5.131,8.542,5.026-8.542h1.971l.018,12.889Z" transform="translate(-373.787 -341.45)"/><path class="a" d="M461.48,430.25h2.394v12.889H461.48Z" transform="translate(-414.413 -341.45)"/><path class="a" d="M479.54,442.5a6.009,6.009,0,0,1-2.2-1.123l.83-1.859a6.517,6.517,0,0,0,1.944,1.023,7.061,7.061,0,0,0,2.312.4,3.986,3.986,0,0,0,2.146-.462,1.394,1.394,0,0,0,.709-1.207,1.177,1.177,0,0,0-.4-.906,2.786,2.786,0,0,0-1-.561q-.6-.2-1.657-.459a19.316,19.316,0,0,1-2.385-.7,3.923,3.923,0,0,1-1.564-1.1,2.949,2.949,0,0,1-.655-2.016,3.438,3.438,0,0,1,.58-1.944,3.924,3.924,0,0,1,1.748-1.392,7.086,7.086,0,0,1,2.865-.516,9.255,9.255,0,0,1,2.321.3,6.416,6.416,0,0,1,1.971.848l-.755,1.859a7.471,7.471,0,0,0-1.769-.755,6.614,6.614,0,0,0-1.787-.257,3.745,3.745,0,0,0-2.113.48,1.476,1.476,0,0,0-.691,1.271,1.147,1.147,0,0,0,.4.905,2.848,2.848,0,0,0,1,.552q.6.2,1.657.462a17.462,17.462,0,0,1,2.357.691,4.038,4.038,0,0,1,1.576,1.1,2.889,2.889,0,0,1,.655,1.989,3.4,3.4,0,0,1-.58,1.935,3.946,3.946,0,0,1-1.76,1.382,7.16,7.16,0,0,1-2.874.516A9.84,9.84,0,0,1,479.54,442.5Z" transform="translate(-425.485 -341.045)"/></g></svg>