<svg xmlns="http://www.w3.org/2000/svg" width="41.375" height="42" viewBox="0 0 41.375 42"><defs><style>.a{fill:#1a3365;fill-rule:evenodd;}</style></defs><path class="a" d="M21.188,0c.986,0,1.667.778,2.341,1.548.4.456.795.908,1.037.952a3.171,3.171,0,0,0,1.31-.545,3.215,3.215,0,0,1,2.638-.638c.9.336,1.239,1.281,1.576,2.223a3.2,3.2,0,0,0,.587,1.224,3.193,3.193,0,0,0,1.357-.093,3.156,3.156,0,0,1,2.683.27,3.16,3.16,0,0,1,.713,2.6,3.138,3.138,0,0,0,.137,1.343,3.136,3.136,0,0,0,1.3.363c.983.166,1.967.331,2.449,1.153a3.171,3.171,0,0,1-.184,2.694,3.184,3.184,0,0,0-.319,1.345c.081.216.593.514,1.108.814.873.508,1.751,1.018,1.925,1.976a3.29,3.29,0,0,1-1.08,2.516A3.216,3.216,0,0,0,39.993,21a3.215,3.215,0,0,0,.774,1.254,3.288,3.288,0,0,1,1.08,2.516c-.174.958-1.052,1.469-1.925,1.977-.515.3-1.027.6-1.108.814a3.184,3.184,0,0,0,.319,1.345,3.17,3.17,0,0,1,.184,2.694c-.482.822-1.466.988-2.449,1.153a3.146,3.146,0,0,0-1.3.363,3.141,3.141,0,0,0-.137,1.343,3.16,3.16,0,0,1-.713,2.6,3.156,3.156,0,0,1-2.683.27,3.193,3.193,0,0,0-1.357-.093,3.2,3.2,0,0,0-.587,1.224c-.336.942-.674,1.887-1.576,2.223a3.217,3.217,0,0,1-2.638-.638,3.169,3.169,0,0,0-1.31-.545c-.242.044-.638.5-1.037.952-.674.77-1.355,1.548-2.341,1.548s-1.667-.778-2.341-1.548c-.4-.456-.795-.908-1.037-.952a3.172,3.172,0,0,0-1.31.545,3.215,3.215,0,0,1-2.638.638c-.9-.336-1.239-1.281-1.576-2.223a3.2,3.2,0,0,0-.587-1.224,3.19,3.19,0,0,0-1.357.093,3.157,3.157,0,0,1-2.683-.27,3.16,3.16,0,0,1-.713-2.6,3.133,3.133,0,0,0-.137-1.343,3.135,3.135,0,0,0-1.3-.363c-.983-.165-1.967-.331-2.449-1.153a3.172,3.172,0,0,1,.184-2.694,3.183,3.183,0,0,0,.319-1.345c-.08-.216-.593-.514-1.108-.814C1.581,26.239.7,25.728.529,24.77a3.289,3.289,0,0,1,1.079-2.516A3.212,3.212,0,0,0,2.383,21a3.214,3.214,0,0,0-.774-1.254A3.289,3.289,0,0,1,.529,17.229c.174-.958,1.052-1.469,1.925-1.976.515-.3,1.028-.6,1.108-.814a3.183,3.183,0,0,0-.319-1.345A3.17,3.17,0,0,1,3.059,10.4c.482-.822,1.466-.988,2.449-1.153a3.145,3.145,0,0,0,1.3-.363,3.135,3.135,0,0,0,.137-1.343,3.159,3.159,0,0,1,.713-2.6,3.156,3.156,0,0,1,2.683-.27,3.194,3.194,0,0,0,1.357.093,3.2,3.2,0,0,0,.587-1.224c.336-.942.675-1.887,1.576-2.223a3.216,3.216,0,0,1,2.638.638,3.172,3.172,0,0,0,1.31.545c.243-.044.638-.5,1.037-.952C19.521.778,20.2,0,21.188,0ZM31.353,10.6a.82.82,0,0,0-.626,1.35h0l0,0c.017.02.034.038.053.056A13.155,13.155,0,0,1,16.757,33.386c-.025-.01-.05-.019-.076-.027h0a.82.82,0,1,0-.472,1.571A14.791,14.791,0,0,0,31.986,10.894a.819.819,0,0,0-.633-.3ZM28.878,8.514a.82.82,0,1,0,.82.82A.82.82,0,0,0,28.878,8.514ZM26.215,7.087a14.792,14.792,0,0,0-15.841,24,.82.82,0,1,0,1.257-1.054h0l0,0a.733.733,0,0,0-.051-.054A13.155,13.155,0,0,1,25.658,8.628h0a.82.82,0,1,0,.557-1.541ZM13.5,31.845a.82.82,0,1,0,.82.82A.82.82,0,0,0,13.5,31.845Zm2.914-18.907a3.406,3.406,0,1,0,2.408,1A3.395,3.395,0,0,0,16.412,12.938Zm1.25,2.156a1.768,1.768,0,1,0,.517,1.25A1.762,1.762,0,0,0,17.662,15.094Zm7.62-1.785L15.731,27.795a.816.816,0,0,0,1.363.9L26.645,14.2a.816.816,0,1,0-1.363-.9Zm.682,8.941a3.406,3.406,0,1,0,2.408,1A3.4,3.4,0,0,0,25.964,22.25Zm1.25,2.156a1.768,1.768,0,1,0,.518,1.25A1.763,1.763,0,0,0,27.214,24.406ZM22.3,2.623c-.429-.49-.862-.985-1.112-.985s-.683.495-1.113.985A3.79,3.79,0,0,1,18.1,4.107a3.752,3.752,0,0,1-2.391-.724c-.546-.3-1.089-.6-1.275-.536s-.394.657-.6,1.244a3.626,3.626,0,0,1-1.3,2.082,3.612,3.612,0,0,1-2.464.112c-.6-.105-1.208-.211-1.345-.095s-.14.733-.137,1.345A3.606,3.606,0,0,1,8.056,9.94a3.61,3.61,0,0,1-2.279.92c-.607.1-1.215.2-1.309.366s.112.741.318,1.324a3.661,3.661,0,0,1,.306,2.458,3.693,3.693,0,0,1-1.818,1.659c-.548.319-1.1.639-1.138.85s.355.71.753,1.211A3.9,3.9,0,0,1,4.021,21a3.9,3.9,0,0,1-1.133,2.272c-.4.5-.792,1-.753,1.211s.59.531,1.138.85a3.691,3.691,0,0,1,1.818,1.659,3.661,3.661,0,0,1-.306,2.459c-.207.583-.412,1.163-.318,1.324s.7.264,1.309.366a3.609,3.609,0,0,1,2.279.92,3.6,3.6,0,0,1,.521,2.405c0,.612-.005,1.224.137,1.345a3.025,3.025,0,0,0,1.345-.095,3.614,3.614,0,0,1,2.464.112,3.624,3.624,0,0,1,1.3,2.082c.21.587.42,1.176.6,1.244s.729-.232,1.275-.536a3.753,3.753,0,0,1,2.391-.724,3.785,3.785,0,0,1,1.978,1.483c.429.49.862.985,1.113.985s.683-.495,1.112-.985a3.787,3.787,0,0,1,1.978-1.483,3.754,3.754,0,0,1,2.392.724c.546.3,1.089.6,1.275.536s.394-.657.6-1.244a3.628,3.628,0,0,1,1.3-2.082,3.612,3.612,0,0,1,2.464-.112c.6.106,1.208.211,1.346.095s.14-.733.137-1.345a3.605,3.605,0,0,1,.521-2.405,3.609,3.609,0,0,1,2.279-.92c.607-.1,1.215-.2,1.31-.366s-.112-.741-.318-1.324a3.661,3.661,0,0,1-.306-2.459A3.69,3.69,0,0,1,39.1,25.332c.548-.319,1.1-.639,1.138-.85s-.355-.71-.753-1.211A3.9,3.9,0,0,1,38.355,21a3.9,3.9,0,0,1,1.133-2.272c.4-.5.792-1,.753-1.211s-.59-.532-1.138-.85a3.692,3.692,0,0,1-1.818-1.659,3.661,3.661,0,0,1,.306-2.458c.207-.583.412-1.163.318-1.324s-.7-.264-1.31-.366a3.609,3.609,0,0,1-2.279-.92A3.606,3.606,0,0,1,33.8,7.535c0-.612.005-1.224-.137-1.345s-.742-.011-1.346.095a3.611,3.611,0,0,1-2.464-.112,3.624,3.624,0,0,1-1.3-2.082c-.21-.587-.42-1.176-.6-1.244s-.729.232-1.275.536a3.753,3.753,0,0,1-2.392.724A3.789,3.789,0,0,1,22.3,2.623Zm0,0" transform="translate(-0.501 0)"/></svg>