<svg xmlns="http://www.w3.org/2000/svg" width="27.682" height="27.478" viewBox="0 0 27.682 27.478"><defs><style>.a{fill:#1a3365;}</style></defs><g transform="translate(0 -0.346)"><path class="a" d="M114.965,12.246v.018a2.988,2.988,0,0,0,1.705,2.85l.011.006a2.009,2.009,0,0,1,.91.875l0,.008a3.122,3.122,0,0,0,2.934,1.637h.019a2.137,2.137,0,0,1,1.263.328,3.2,3.2,0,0,0,3.4,0,2.136,2.136,0,0,1,1.263-.328h.019A3.124,3.124,0,0,0,129.423,16l0-.006a2.012,2.012,0,0,1,.912-.877l.009,0a2.988,2.988,0,0,0,1.705-2.85v-.017a1.912,1.912,0,0,1,.333-1.185,2.939,2.939,0,0,0,0-3.324,1.912,1.912,0,0,1-.333-1.184V6.537a2.988,2.988,0,0,0-1.706-2.851l-.01-.005a2.007,2.007,0,0,1-.908-.872l-.006-.011a3.124,3.124,0,0,0-2.934-1.637h-.019a2.135,2.135,0,0,1-1.263-.328h0a3.2,3.2,0,0,0-3.4,0,2.138,2.138,0,0,1-1.263.328h-.019A3.122,3.122,0,0,0,117.6,2.8l0,.008a2.01,2.01,0,0,1-.911.876l-.011.005a2.988,2.988,0,0,0-1.705,2.85v.017a1.91,1.91,0,0,1-.333,1.185,2.939,2.939,0,0,0,0,3.324,1.91,1.91,0,0,1,.332,1.185Zm.516-3.923a2.947,2.947,0,0,0,.513-1.828V6.477a1.959,1.959,0,0,1,1.126-1.863l.009,0A3.035,3.035,0,0,0,118.5,3.286l.005-.01a2.09,2.09,0,0,1,1.966-1.087h.018a3.158,3.158,0,0,0,1.868-.485,2.166,2.166,0,0,1,2.3,0,3.165,3.165,0,0,0,1.868.486h.018a2.087,2.087,0,0,1,1.966,1.085l.007.013a3.034,3.034,0,0,0,1.373,1.321l.009,0a1.96,1.96,0,0,1,1.127,1.864V6.5a2.946,2.946,0,0,0,.514,1.828,1.9,1.9,0,0,1,0,2.153,2.949,2.949,0,0,0-.513,1.828v.017a1.961,1.961,0,0,1-1.127,1.865l-.008,0a3.038,3.038,0,0,0-1.376,1.325l0,.008a2.089,2.089,0,0,1-1.967,1.087h-.018a3.163,3.163,0,0,0-1.868.486,2.166,2.166,0,0,1-2.3,0,3.158,3.158,0,0,0-1.693-.49q-.087,0-.175,0h-.018a2.088,2.088,0,0,1-1.967-1.088l-.005-.01a3.031,3.031,0,0,0-1.372-1.321l-.01,0a1.959,1.959,0,0,1-1.127-1.864V12.3a2.949,2.949,0,0,0-.514-1.828,1.9,1.9,0,0,1,0-2.153Zm0,0" transform="translate(-106.766 0)"/><path class="a" d="M204.747,67.664a.515.515,0,0,0,.71-.164l6.105-9.781a.515.515,0,1,0-.874-.546l-6.105,9.781a.515.515,0,0,0,.164.71Zm0,0" transform="translate(-191.329 -52.936)"/><path class="a" d="M183.71,65.91a2.618,2.618,0,1,0-2.276-2.6A2.455,2.455,0,0,0,183.71,65.91Zm0-4.16a1.606,1.606,0,1,1-1.245,1.565A1.434,1.434,0,0,1,183.71,61.749Zm0,0" transform="translate(-169.745 -56.484)"/><path class="a" d="M267.684,143.111a2.3,2.3,0,1,0,2.276-2.6A2.454,2.454,0,0,0,267.684,143.111Zm3.521,0a1.278,1.278,0,1,1-1.245-1.565A1.434,1.434,0,0,1,271.205,143.111Zm0,0" transform="translate(-250.439 -131.14)"/><path class="a" d="M27.615,268.607a2.6,2.6,0,0,0-3.438-1.048l-4.037,1.908a3.289,3.289,0,0,0-2.8-1.73l-3.727-.1a3.939,3.939,0,0,1-1.694-.437l-.379-.2a6.689,6.689,0,0,0-6.2.007l.024-.859a.515.515,0,0,0-.5-.53l-4.087-.112a.515.515,0,0,0-.529.5L0,274.975a.515.515,0,0,0,.5.529l4.087.112H4.6a.516.516,0,0,0,.515-.5l.012-.429,1.062-.568a1.822,1.822,0,0,1,1.359-.149l6.34,1.779.033.008a6.785,6.785,0,0,0,1.394.144,6.877,6.877,0,0,0,2.873-.627.505.505,0,0,0,.064-.035l9.192-5.946a.515.515,0,0,0,.169-.687Zm-26.57,5.882.218-7.938,3.057.084L4.1,274.572Zm16.68-.135a5.842,5.842,0,0,1-3.573.4l-6.323-1.774a2.848,2.848,0,0,0-2.124.232l-.543.29.145-5.278a5.665,5.665,0,0,1,5.755-.307l.379.2a4.975,4.975,0,0,0,2.14.553l3.727.1a2.26,2.26,0,0,1,2.148,1.8l-5.551-.153a.515.515,0,0,0-.028,1.031l6.126.169h.015a.516.516,0,0,0,.515-.5,3.288,3.288,0,0,0-.05-.669l4.14-1.957.012-.006a1.574,1.574,0,0,1,1.781.249Zm0,0" transform="translate(0 -248.077)"/></g></svg>