<svg xmlns="http://www.w3.org/2000/svg" width="24" height="23.98" viewBox="0 0 24 23.98"><defs><style>.a{fill:#fff;}</style></defs><g transform="translate(0 -0.332)"><path class="a" d="M77.289,76.526v6.509a.471.471,0,0,0,.471.471h6.509a.471.471,0,0,0,.471-.471V81.8a.471.471,0,1,0-.941,0v.764H78.23V77H83.8v1.133a.471.471,0,1,0,.941,0v-1.6a.471.471,0,0,0-.471-.471H77.76a.471.471,0,0,0-.471.471Zm0,0" transform="translate(-74.391 -72.883)"/><path class="a" d="M138.514,136.8a.47.47,0,0,0-.471.471v1.953a.471.471,0,0,0,.471.471h1.953a.471.471,0,0,0,.471-.471v-1.953a.471.471,0,0,0-.471-.471ZM140,138.758h-1.011v-1.011H140Zm0,0" transform="translate(-132.866 -131.355)"/><path class="a" d="M84.269,364.344H77.76a.471.471,0,0,0-.471.471v6.509a.471.471,0,0,0,.471.471h6.509a.471.471,0,0,0,.471-.471v-6.509A.471.471,0,0,0,84.269,364.344Zm-.471,6.509H78.23v-5.568H83.8Zm0,0" transform="translate(-74.391 -350.362)"/><path class="a" d="M366.92,83.5h6.509a.471.471,0,0,0,.47-.471V76.525a.471.471,0,0,0-.47-.471H366.92a.471.471,0,0,0-.471.471v6.509A.471.471,0,0,0,366.92,83.5ZM367.39,77h5.568v5.568H367.39Zm0,0" transform="translate(-352.707 -72.883)"/><path class="a" d="M373.9,371.323v-6.509a.471.471,0,0,0-.47-.47H366.92a.471.471,0,0,0-.471.47v6.509a.471.471,0,0,0,.471.471h6.509A.471.471,0,0,0,373.9,371.323Zm-.941-.471H367.39v-5.568h5.568Zm0,0" transform="translate(-352.707 -350.362)"/><path class="a" d="M144.23,84.346a.471.471,0,0,0,0-.941h-8.251v-8.27a.471.471,0,1,0-.941,0V83.4h-6.246a.471.471,0,0,0,0,.941h6.246v8.161a.471.471,0,0,0,.941,0V84.346Zm0,0" transform="translate(-123.508 -71.545)"/><path class="a" d="M138.514,428.921h1.953a.471.471,0,0,0,.471-.471V426.5a.471.471,0,0,0-.471-.471h-1.953a.47.47,0,0,0-.471.471v1.953A.471.471,0,0,0,138.514,428.921Zm.471-1.953H140v1.011h-1.011Zm0,0" transform="translate(-132.866 -409.731)"/><path class="a" d="M429.618,136.8h-1.953a.471.471,0,0,0-.471.471v1.953a.471.471,0,0,0,.471.471h1.953a.471.471,0,0,0,.471-.471v-1.953A.471.471,0,0,0,429.618,136.8Zm-.471,1.953h-1.011v-1.011h1.011Zm0,0" transform="translate(-411.175 -131.355)"/><path class="a" d="M427.666,428.921h1.953a.471.471,0,0,0,.471-.471V426.5a.47.47,0,0,0-.471-.471h-1.953a.471.471,0,0,0-.471.471v1.953A.471.471,0,0,0,427.666,428.921Zm.471-1.953h1.011v1.011h-1.011Zm0,0" transform="translate(-411.175 -409.731)"/><path class="a" d="M77.34,307.47l-.025.006a.471.471,0,1,0,.216.916l.025-.006a.471.471,0,0,0-.216-.916Zm0,0" transform="translate(-74.066 -295.608)"/><path class="a" d="M250.91,167.468l-.025.006a.471.471,0,0,0,.107.929.464.464,0,0,0,.108-.013l.025-.006a.471.471,0,0,0-.215-.916Zm0,0" transform="translate(-241.127 -160.856)"/><path class="a" d="M.471,4.187a.47.47,0,0,0,.471-.471V1.273H3.3a.471.471,0,1,0,0-.941H.471A.471.471,0,0,0,0,.8V3.716a.471.471,0,0,0,.471.471Zm0,0"/><path class="a" d="M542.866.332h-2.825a.471.471,0,1,0,0,.941H542.4V3.716a.471.471,0,0,0,.941,0V.8a.471.471,0,0,0-.471-.471Zm0,0" transform="translate(-519.336 0)"/><path class="a" d="M3.3,539.917H.941v-2.443a.471.471,0,0,0-.941,0v2.914a.471.471,0,0,0,.471.471H3.3a.471.471,0,1,0,0-.941Zm0,0" transform="translate(0 -516.546)"/><path class="a" d="M542.866,537a.471.471,0,0,0-.471.471v2.443h-2.354a.471.471,0,1,0,0,.941h2.825a.471.471,0,0,0,.471-.471v-2.914A.471.471,0,0,0,542.866,537Zm0,0" transform="translate(-519.336 -516.547)"/></g></svg>