<svg xmlns="http://www.w3.org/2000/svg" width="25.487" height="30.232" viewBox="0 0 25.487 30.232"><defs><style>.a{fill:none;stroke:#fff;}</style></defs><g transform="translate(1.12 0.491)"><path class="a" d="M317.534,147.9h2.152a3.118,3.118,0,1,0-.005-6.233c-1.953-.012-3.906.008-5.859-.007a6.149,6.149,0,0,1-6.025-5.248,2.122,2.122,0,0,1,0-.263,4.656,4.656,0,0,1,.468-.045c3.834,0,7.668-.037,11.5.008a8.67,8.67,0,0,1,8.707,9.235,8.853,8.853,0,0,1-5.593,7.545.612.612,0,0,1-.524-.07c-1.588-1.561-3.157-3.14-4.729-4.717C317.587,148.069,317.581,148.012,317.534,147.9Z" transform="translate(-307.547 -136.08)"/><path class="a" d="M328.9,260.345q-7.634-7.668-15.278-15.314a1.112,1.112,0,0,0-.709-.286c-2.336-.021-4.673-.013-7.01-.011-.11,0-.23.01-.354.02l5.51,5.51h.126v.129l10.476,10.47a5.765,5.765,0,0,0,2.545,1.106,6.052,6.052,0,0,0,4.982-1.306C329.07,260.534,328.99,260.435,328.9,260.345Z" transform="translate(-305.55 -232.823)"/></g></svg>