<svg xmlns="http://www.w3.org/2000/svg" width="56" height="31.81" viewBox="0 0 56 31.81"><defs><style>.a{fill:#1a3365;}</style></defs><g transform="translate(0 -110.581)"><g transform="translate(0 110.581)"><g transform="translate(0 0)"><path class="a" d="M371.716,239.432a.82.82,0,0,0-.82.82V241.4a.82.82,0,0,0,1.641,0v-1.152A.82.82,0,0,0,371.716,239.432Z" transform="translate(-330.329 -225.339)"/><path class="a" d="M55.18,126.812a.82.82,0,0,0,.82-.82v-3.883a1.057,1.057,0,0,0-.169-.574l-5.342-8.281a1.451,1.451,0,0,0-1.223-.666H39.339a1.457,1.457,0,0,0-1.456,1.456V132.12h-2.31v-3.628a8.131,8.131,0,0,0,2.087-5.445v-2.182A8.174,8.174,0,0,0,29.5,112.7H24.111a2.946,2.946,0,0,0-2.825-2.12H14.858a2.946,2.946,0,0,0-2.825,2.12h-.986a.82.82,0,0,0,0,1.641H29.5a6.532,6.532,0,0,1,6.524,6.524v2.182a6.512,6.512,0,0,1-2.334,5l-.054.046c-.061.051-.124.1-.188.148l-.1.074c-.06.044-.121.088-.183.13l-.115.075q-.155.1-.316.193c-.048.027-.095.055-.143.081s-.116.06-.174.089l-.152.074q-.087.041-.176.08c-.054.023-.109.046-.163.067s-.114.047-.172.068q-.145.053-.292.1a6.5,6.5,0,0,1-1.964.3H8.165a6.517,6.517,0,0,1-2.3-.42l-.054-.021q-.146-.056-.288-.12l-.082-.037c-.087-.04-.174-.083-.259-.127l-.081-.041q-.154-.082-.3-.172l-.072-.045q-.118-.073-.233-.151c-.05-.034-.1-.07-.148-.106l-.13-.1q-.084-.064-.165-.13l-.1-.08a6.511,6.511,0,0,1-2.314-4.978v-2.182a6.525,6.525,0,0,1,6.145-6.513.82.82,0,0,0-.094-1.638A8.167,8.167,0,0,0,0,120.866v2.182a8.139,8.139,0,0,0,2.455,5.829v3.244H2.321A1.725,1.725,0,0,0,.6,133.843v1.288a1.725,1.725,0,0,0,1.723,1.723H5.973a5.949,5.949,0,0,0,11.87,0H39.256a5.949,5.949,0,0,0,11.87,0h2.716A2.16,2.16,0,0,0,56,134.7v-5.35a.82.82,0,0,0-1.641,0v2.774H49.271a5.937,5.937,0,0,0-8.16,0H39.523V114.228h9.641l5.195,8.052v3.712A.82.82,0,0,0,55.18,126.812ZM13.849,112.7a1.3,1.3,0,0,1,1.009-.48h6.429a1.3,1.3,0,0,1,1.009.48Zm18.623,17.95h0c.045-.018.09-.038.135-.057l.119-.05q.127-.055.252-.114l.107-.052q.129-.063.256-.131l.09-.049q.133-.074.264-.152l.069-.042c.056-.034.112-.067.167-.1v2.22h-1.46v-1.469Zm-2.977.561a8.173,8.173,0,0,0,1.337-.111v1.019H15.988a5.98,5.98,0,0,0-1.251-.908ZM4.1,130.125l.09.049q.095.053.191.1l.15.077q.114.057.229.11l.127.058q.127.056.256.107l.113.045c.091.035.182.067.274.1l.065.023v1.324H4.1v-2Zm1.991,5.089H2.321a.082.082,0,0,1-.082-.082v-1.288a.082.082,0,0,1,.082-.082H6.6A5.9,5.9,0,0,0,6.086,135.214Zm1.146-4.056a8.207,8.207,0,0,0,.933.055h.914a5.985,5.985,0,0,0-1.251.908h-.6Zm4.676,9.593a4.307,4.307,0,1,1,4.31-4.307A4.313,4.313,0,0,1,11.908,140.751Zm42.452-6.99v.935a.518.518,0,0,1-.517.517h-2.83a5.9,5.9,0,0,0-.514-1.453Zm-9.169-1.624a4.307,4.307,0,1,1-4.31,4.307A4.313,4.313,0,0,1,45.191,132.137Zm-5.308,1.624h0a5.9,5.9,0,0,0-.514,1.453H17.73a5.894,5.894,0,0,0-.514-1.453Z" transform="translate(0 -110.581)"/><path class="a" d="M84.783,320.005a2.957,2.957,0,1,0,2.958,2.957A2.961,2.961,0,0,0,84.783,320.005Zm0,4.273a1.316,1.316,0,1,1,1.318-1.316A1.318,1.318,0,0,1,84.783,324.278Z" transform="translate(-72.875 -297.099)"/><path class="a" d="M389.083,325.919a2.957,2.957,0,1,0-2.958-2.957A2.961,2.961,0,0,0,389.083,325.919Zm0-4.273a1.316,1.316,0,1,1-1.318,1.316A1.318,1.318,0,0,1,389.083,321.646Z" transform="translate(-343.893 -297.099)"/><path class="a" d="M384.553,162.15a1.054,1.054,0,0,0-.169-.574l-4.113-6.375a1.283,1.283,0,0,0-1.083-.59h-5.842a1.289,1.289,0,0,0-1.288,1.288v6.022a1.289,1.289,0,0,0,1.288,1.288h10.148A1.06,1.06,0,0,0,384.553,162.15Zm-10.854-.582v-5.316H379l3.43,5.316Z" transform="translate(-331.364 -149.795)"/></g></g></g></svg>