<svg xmlns="http://www.w3.org/2000/svg" width="33.714" height="33.714" viewBox="0 0 33.714 33.714"><defs><style>.a{fill:#fff;}</style></defs><path class="a" d="M30.422,2.9H27.283V1.975a1.975,1.975,0,1,0-3.951,0V2.9H12.27V1.975a1.975,1.975,0,1,0-3.951,0v.946A.657.657,0,0,0,8.143,2.9H5.52A3.3,3.3,0,0,0,2.227,6.19V17.406a.658.658,0,0,0,1.317,0V9.68H27.283a.658.658,0,1,0,0-1.317H3.544V6.19A1.978,1.978,0,0,1,5.52,4.214H8.143a.66.66,0,0,0,.176-.024v.847a1.975,1.975,0,1,0,3.951,0V4.214H23.332v.823a1.975,1.975,0,1,0,3.951,0V4.214h3.139A1.978,1.978,0,0,1,32.4,6.19V31.212a1.186,1.186,0,1,1-2.371,0v-1.7a.659.659,0,0,0-.658-.658h-7.66a.658.658,0,1,0,0,1.317h7v1.045a2.487,2.487,0,0,0,.3,1.186H2.5a1.187,1.187,0,0,1-1.185-1.185V30.167H16.055a.658.658,0,1,0,0-1.317H9.476a5.4,5.4,0,1,0-7.037,0H.658A.659.659,0,0,0,0,29.508v1.7a2.505,2.505,0,0,0,2.5,2.5H31.212a2.505,2.505,0,0,0,2.5-2.5V6.19A3.3,3.3,0,0,0,30.422,2.9ZM10.953,5.037a.658.658,0,0,1-1.317,0V1.975a.658.658,0,1,1,1.317,0Zm15.013,0a.658.658,0,0,1-1.317,0V1.975a.658.658,0,0,1,1.317,0ZM1.875,24.759a4.083,4.083,0,1,1,4.083,4.083A4.087,4.087,0,0,1,1.875,24.759Z"/><g transform="translate(29.713 8.363)"><path class="a" d="M452.364,127.193a.658.658,0,1,0,.193.466A.663.663,0,0,0,452.364,127.193Z" transform="translate(-451.24 -127)"/></g><g transform="translate(18.542 28.85)"><path class="a" d="M282.7,438.322a.659.659,0,1,0,.193.466A.662.662,0,0,0,282.7,438.322Z" transform="translate(-281.58 -438.13)"/></g><g transform="translate(12.396 20.018)"><path class="a" d="M190.747,304a2.5,2.5,0,1,0,2.5,2.5A2.505,2.505,0,0,0,190.747,304Zm0,3.688a1.185,1.185,0,1,1,1.185-1.185A1.187,1.187,0,0,1,190.747,307.688Z" transform="translate(-188.245 -304)"/></g><g transform="translate(18.541 20.018)"><path class="a" d="M284.08,304a2.5,2.5,0,1,0,2.5,2.5A2.505,2.505,0,0,0,284.08,304Zm0,3.688a1.185,1.185,0,1,1,1.185-1.185A1.187,1.187,0,0,1,284.08,307.688Z" transform="translate(-281.578 -304)"/></g><g transform="translate(24.687 20.018)"><path class="a" d="M377.414,304a2.5,2.5,0,1,0,2.5,2.5A2.505,2.505,0,0,0,377.414,304Zm0,3.688A1.185,1.185,0,1,1,378.6,306.5,1.187,1.187,0,0,1,377.414,307.688Z" transform="translate(-374.912 -304)"/></g><g transform="translate(6.25 13.17)"><path class="a" d="M97.414,200a2.5,2.5,0,1,0,2.5,2.5A2.505,2.505,0,0,0,97.414,200Zm0,3.688A1.185,1.185,0,1,1,98.6,202.5,1.187,1.187,0,0,1,97.414,203.688Z" transform="translate(-94.912 -200)"/></g><g transform="translate(18.541 13.17)"><path class="a" d="M284.08,200a2.5,2.5,0,1,0,2.5,2.5A2.505,2.505,0,0,0,284.08,200Zm0,3.688a1.185,1.185,0,1,1,1.185-1.185A1.187,1.187,0,0,1,284.08,203.688Z" transform="translate(-281.578 -200)"/></g><g transform="translate(24.687 13.17)"><path class="a" d="M377.414,200a2.5,2.5,0,1,0,2.5,2.5A2.505,2.505,0,0,0,377.414,200Zm0,3.688A1.185,1.185,0,1,1,378.6,202.5,1.187,1.187,0,0,1,377.414,203.688Z" transform="translate(-374.912 -200)"/></g><g transform="translate(12.396 13.17)"><path class="a" d="M190.747,200a2.5,2.5,0,1,0,2.5,2.5A2.505,2.505,0,0,0,190.747,200Zm0,3.688a1.185,1.185,0,1,1,1.185-1.185A1.187,1.187,0,0,1,190.747,203.688Z" transform="translate(-188.245 -200)"/></g><g transform="translate(3.371 22.961)"><path class="a" d="M56.127,348.893a.659.659,0,0,0-.931,0l-2.144,2.144-.733-.733a.659.659,0,0,0-.931.931l1.2,1.2a.658.658,0,0,0,.931,0l2.61-2.61A.658.658,0,0,0,56.127,348.893Z" transform="translate(-51.194 -348.7)"/></g></svg>