<svg xmlns="http://www.w3.org/2000/svg" width="62" height="59.336" viewBox="0 0 62 59.336"><defs><style>.a{opacity:0.4;}.b{fill:#74727f;}.c{fill:#5f5e6a;}.d{fill:#1a3365;}.e{fill:#eeefeb;}.f{fill:#d6d6d0;}.g{fill:#363540;}.h{fill:#21212b;}.i{fill:#c6c6c1;}.j{fill:#319df5;}.k{fill:#0c88ed;}.l{fill:#56b1fc;}.m{fill:#4b4a55;}</style></defs><g class="a" transform="translate(0 -11)"><path class="b" d="M60.594,378.622l-.511,4.612a29.671,29.671,0,0,0,48.081-4.612Z" transform="translate(-52.807 -323.105)"/><path class="c" d="M199.71,378.622c9.078,0,9.93,12.848,1.843,14.6a29.678,29.678,0,0,0,29.33-14.6Z" transform="translate(-175.526 -323.105)"/><path class="d" d="M86.182,11A29.532,29.532,0,0,0,68.59,16.778L64.3,55.517h47.571A29.674,29.674,0,0,0,86.182,11Z" transform="translate(-56.514)"/><path class="e" d="M0,81.909a29.97,29.97,0,0,0,.227,3.678H24.189V59.019a1.1,1.1,0,0,0-1.1-1.1H12.208A29.625,29.625,0,0,0,0,81.909Z" transform="translate(0 -41.241)"/><path class="f" d="M8.481,106.794V84.568c0-.016,0-.031,0-.046A29.566,29.566,0,0,0,0,105.287a29.97,29.97,0,0,0,.227,3.678H10.652A2.171,2.171,0,0,1,8.481,106.794Z" transform="translate(0 -64.619)"/><path class="g" d="M44.222,284a3.687,3.687,0,0,1,3.638,2.72l2.406,9.641h12.79V284Z" transform="translate(-38.867 -239.945)"/><path class="h" d="M141.049,284a1.377,1.377,0,0,1,1.377,1.377v9.607a1.377,1.377,0,0,1-1.377,1.377h7.109V284Z" transform="translate(-123.969 -239.945)"/><path class="h" d="M81.4,335.043l1.542,6.464h12.79v-6.464Z" transform="translate(-71.539 -284.803)"/><path d="M142.426,339.846a1.377,1.377,0,0,1-1.377,1.377h7.109v-6.181h-5.732v4.8Z" transform="translate(-123.969 -284.803)"/><path d="M326.331,312.041h14.131v3.2H326.331Z" transform="translate(-286.814 -264.587)"/><path class="h" d="M322.874,329.241a8.6,8.6,0,1,1,8.6-8.6A8.61,8.61,0,0,1,322.874,329.241Zm0-13.455a4.855,4.855,0,1,0,4.855,4.855A4.86,4.86,0,0,0,322.874,315.786Z" transform="translate(-276.217 -264.587)"/><path class="h" d="M322.874,329.241a8.6,8.6,0,1,1,8.6-8.6A8.61,8.61,0,0,1,322.874,329.241Zm0-13.455a4.855,4.855,0,1,0,4.855,4.855A4.86,4.86,0,0,0,322.874,315.786Z" transform="translate(-276.217 -264.587)"/><path d="M327.729,331.179c-1.571-.137-1.772-1.106-1.752-1.671a.586.586,0,0,0-.335-.544,1.232,1.232,0,0,1-.572-.551,4.853,4.853,0,1,1-4.193-8.751,1.309,1.309,0,0,1-.023-.788.579.579,0,0,0-.24-.623,1.652,1.652,0,0,1-.549-2.293,8.6,8.6,0,1,0,7.665,15.22Z" transform="translate(-276.219 -268.03)"/><circle class="f" cx="4.855" cy="4.855" r="4.855" transform="translate(40.331 58.689) rotate(-67.486)"/><path class="i" d="M352.249,355.293a1.6,1.6,0,0,1-.148-.839.583.583,0,0,0-.3-.556,5.527,5.527,0,0,1-2.9-6.126.573.573,0,0,0-.276-.6,1.228,1.228,0,0,1-.57-.626,4.853,4.853,0,1,0,4.193,8.751Z" transform="translate(-303.399 -294.91)"/><path class="e" d="M342.259,345.957a5.929,5.929,0,1,1,5.929-5.929A5.936,5.936,0,0,1,342.259,345.957Zm0-9.71a3.781,3.781,0,1,0,3.781,3.781A3.785,3.785,0,0,0,342.259,336.247Z" transform="translate(-295.603 -283.974)"/><path class="f" d="M345.272,347.773a.611.611,0,0,0-.248-.223,1.344,1.344,0,0,1-.72-1.39.582.582,0,0,0-.05-.281,3.779,3.779,0,1,1-3.213-6.787.566.566,0,0,0-.212-.217,1.179,1.179,0,0,1-.593-1.415.571.571,0,0,0-.024-.355,5.928,5.928,0,1,0,5.061,10.667Z" transform="translate(-295.602 -286.617)"/><path class="j" d="M234.1,151.354l-2.006-1.622a3.747,3.747,0,0,0-2.356-.834h-9.121a3.7,3.7,0,0,1-2.773-1.253l-6.936-9.13a3.7,3.7,0,0,0-2.773-1.253h-9.279a1.464,1.464,0,0,0-1.464,1.464v29.1h11.246l2.327-9.641a3.585,3.585,0,0,1,3.518-2.72h11.324a3.585,3.585,0,0,1,3.518,2.72l1.554,6.006h1.459a1.931,1.931,0,0,1,1.618.877l1.533-2.631v-8.166A3.746,3.746,0,0,0,234.1,151.354Z" transform="translate(-173.486 -110.972)"/><path class="k" d="M204.693,137.261h-5.84a1.464,1.464,0,0,0-1.464,1.464v29.1h7.3V141.039l-.013-.016A2.864,2.864,0,0,1,204.693,137.261Z" transform="translate(-173.486 -110.972)"/><path class="c" d="M453.429,363.48h-2.551a1.934,1.934,0,0,1,0-3.867h2.551a1.934,1.934,0,1,1,0,3.867Z" transform="translate(-394.58 -306.398)"/><path class="e" d="M482.174,264.734v-1.577a3.746,3.746,0,0,0-.581-2H479.4a1.332,1.332,0,0,0-1.2,1.917l.449.916a1.332,1.332,0,0,0,1.2.746h2.327Z" transform="translate(-420.174 -219.862)"/><path class="f" d="M480.918,263.987l-.449-.916a1.33,1.33,0,0,1,1.125-1.913l0,0H479.4a1.332,1.332,0,0,0-1.2,1.917l.449.916a1.332,1.332,0,0,0,1.2.746h2.268A1.331,1.331,0,0,1,480.918,263.987Z" transform="translate(-420.173 -219.862)"/><path class="l" d="M228.221,256.8h-1.766a1.074,1.074,0,1,1,0-2.148h1.766a1.074,1.074,0,1,1,0,2.148Z" transform="translate(-198.088 -214.144)"/><path class="g" d="M238.013,168.464H231.7a.993.993,0,0,0-.993.993v5.872a.993.993,0,0,0,.993.993h11.437a.666.666,0,0,0,.53-1.068l-4.86-6.4A.993.993,0,0,0,238.013,168.464Z" transform="translate(-202.766 -138.396)"/><path class="h" d="M233.972,168.464H231.7a.993.993,0,0,0-.993.993v5.872a.993.993,0,0,0,.993.993h2.277Z" transform="translate(-202.765 -138.396)"/><path class="h" d="M292.009,202.915h5.007a.666.666,0,0,0,.53-1.068l-2.375-3.126S295.8,201.811,292.009,202.915Z" transform="translate(-256.649 -164.989)"/><path class="e" d="M336.01,211.718h-2a1,1,0,0,0-1,1v3.247a1,1,0,0,0,1,1h2a2.259,2.259,0,0,0,2.252-2.252v-.737A2.259,2.259,0,0,0,336.01,211.718Z" transform="translate(-292.685 -176.412)"/><path class="f" d="M334.842,214.707v-.737a2.259,2.259,0,0,1,1.71-2.183,2.227,2.227,0,0,0-.542-.069h-2a1,1,0,0,0-1,1v3.247a1,1,0,0,0,1,1h2a2.227,2.227,0,0,0,.542-.069A2.259,2.259,0,0,1,334.842,214.707Z" transform="translate(-292.685 -176.412)"/><path class="c" d="M6.447,312.041a29.371,29.371,0,0,0,.859,2.951l.128.248h5.254v-3.2H6.447Z" transform="translate(-5.666 -264.587)"/><path d="M6.545,312.444a29.374,29.374,0,0,0,.842,2.893l.789,1.525A4.855,4.855,0,0,1,10.488,321c0,.107,0,.212-.011.317l.786,1.52a29.936,29.936,0,0,0,1.873,2.36,8.544,8.544,0,0,0,1.1-4.2A8.612,8.612,0,0,0,6.545,312.444Z" transform="translate(-5.752 -264.941)"/><path class="e" d="M13.471,336.277a29.58,29.58,0,0,0,3.883,7.51,5.926,5.926,0,0,0-3.883-7.51Z" transform="translate(-11.84 -285.888)"/><path class="m" d="M10.9,286.724A3.585,3.585,0,0,0,7.381,284H1.6a29.547,29.547,0,0,0,.7,3.867H7.2l2.627,10.881a1.933,1.933,0,1,0,3.759-.907Z" transform="translate(-1.408 -239.945)"/><path class="m" d="M96.938,389.95H70.994a1.934,1.934,0,0,1,0-3.867H96.938a1.934,1.934,0,0,1,0,3.867Z" transform="translate(-60.697 -329.663)"/><path class="g" d="M260.317,386.082h-5.368a1.934,1.934,0,1,1,0,3.867h5.368a1.934,1.934,0,0,0,0-3.867Z" transform="translate(-224.076 -329.662)"/><path class="m" d="M285.246,300.233a1.935,1.935,0,0,1-1.881-2.388l2.684-11.121a3.585,3.585,0,0,1,3.518-2.72h12.184a3.585,3.585,0,0,1,3.518,2.72l1.911,7.916a1.933,1.933,0,1,1-3.759.907l-1.853-7.676H289.75l-2.627,10.881A1.934,1.934,0,0,1,285.246,300.233Z" transform="translate(-249.003 -239.946)"/><g transform="translate(0.194 44.059)"><path class="g" d="M289.569,284a3.585,3.585,0,0,0-3.518,2.72l-2.684,11.121a1.933,1.933,0,1,0,3.759.907l2.627-10.881C287.265,286.148,289.569,284,289.569,284Z" transform="translate(-249.198 -284.004)"/><path class="g" d="M9.632,284.768A3.663,3.663,0,0,0,7.381,284H1.6a29.547,29.547,0,0,0,.7,3.867H7.2A2.519,2.519,0,0,1,9.632,284.768Z" transform="translate(-1.602 -284.004)"/></g></g></svg>