<svg xmlns="http://www.w3.org/2000/svg" width="22.134" height="39.06" viewBox="0 0 22.134 39.06"><defs><style>.a{fill:#1a3365;}</style></defs><g transform="translate(-110.933)"><g transform="translate(118.094 1.953)"><g transform="translate(0)"><path class="a" d="M211.962,25.6h-6.51a.651.651,0,0,0,0,1.3h6.51a.651.651,0,0,0,0-1.3Z" transform="translate(-204.801 -25.6)"/></g></g><g transform="translate(128.51 1.953)"><g transform="translate(0)"><path class="a" d="M342.636,25.6h-.651a.651.651,0,1,0,0,1.3h.651a.651.651,0,1,0,0-1.3Z" transform="translate(-341.334 -25.6)"/></g></g><g transform="translate(119.396 33.201)"><g transform="translate(0)"><path class="a" d="M225.279,435.2h-1.616a1.8,1.8,0,0,0-1.8,1.8v.314a1.8,1.8,0,0,0,1.8,1.8h1.616a1.8,1.8,0,0,0,1.8-1.8V437A1.8,1.8,0,0,0,225.279,435.2Zm.493,2.111a.494.494,0,0,1-.493.493h-1.616a.494.494,0,0,1-.494-.493V437a.494.494,0,0,1,.494-.494h1.616a.494.494,0,0,1,.494.494Z" transform="translate(-221.867 -435.2)"/></g></g><g transform="translate(110.933)"><g transform="translate(0)"><path class="a" d="M130.714,0H113.286a2.356,2.356,0,0,0-2.353,2.353V36.706a2.356,2.356,0,0,0,2.353,2.353h17.427a2.356,2.356,0,0,0,2.353-2.353V2.353A2.356,2.356,0,0,0,130.714,0Zm1.051,36.706a1.052,1.052,0,0,1-1.051,1.051H113.286a1.052,1.052,0,0,1-1.051-1.051V2.353A1.053,1.053,0,0,1,113.286,1.3h17.427a1.053,1.053,0,0,1,1.051,1.051V36.706Z" transform="translate(-110.933)"/></g></g><g transform="translate(110.933 3.906)"><g transform="translate(0)"><path class="a" d="M132.417,51.2H111.585a.651.651,0,0,0-.651.651V79.193a.651.651,0,0,0,.651.651h20.832a.651.651,0,0,0,.651-.651V51.851A.651.651,0,0,0,132.417,51.2Zm-.651,27.342h-19.53V52.5h19.53Z" transform="translate(-110.934 -51.2)"/></g></g></g></svg>