<svg xmlns="http://www.w3.org/2000/svg" width="100.4" height="100.4" viewBox="0 0 100.4 100.4"><defs><style>.a{fill:#fff;}</style></defs><g transform="translate(-1 -1)"><path class="a" d="M31,5h9.716V8.239H31Z" transform="translate(18.581 2.477)"/><path class="a" d="M27,5h3.239V8.239H27Z" transform="translate(16.103 2.477)"/><path class="a" d="M23.188,47h-.949A3.242,3.242,0,0,0,19,50.239v3.239a3.242,3.242,0,0,0,3.239,3.239h.949a3.217,3.217,0,0,0,2.29-.949l3.909-3.909-3.909-3.909A3.217,3.217,0,0,0,23.188,47Zm0,6.477h-.949V50.239h.949l1.619,1.619Z" transform="translate(11.148 28.49)"/><path class="a" d="M35.477,47H32.239A3.242,3.242,0,0,0,29,50.239v3.239a3.242,3.242,0,0,0,3.239,3.239h3.239a3.242,3.242,0,0,0,3.239-3.239V50.239A3.242,3.242,0,0,0,35.477,47Zm-3.239,6.477V50.239h3.239l0,3.239Z" transform="translate(17.342 28.49)"/><path class="a" d="M45.734,47h-.949a3.217,3.217,0,0,0-2.29.949l-3.909,3.909L42.5,55.767a3.217,3.217,0,0,0,2.29.949h.949a3.242,3.242,0,0,0,3.239-3.239V50.239A3.242,3.242,0,0,0,45.734,47Zm-.949,6.477-1.619-1.619,1.619-1.619h.949l0,3.239Z" transform="translate(23.279 28.49)"/><path class="a" d="M82.162,20.432h-.194V9.1a8.106,8.106,0,0,0-8.1-8.1H28.529a8.081,8.081,0,0,0-8,7.167,13.85,13.85,0,0,0-4.309-.69H14.931A13.933,13.933,0,0,0,3.518,29.4L11.7,41.087a4.731,4.731,0,0,0,7.75,0l.983-1.406V93.3a8.106,8.106,0,0,0,8.1,8.1H73.871a8.106,8.106,0,0,0,8.1-8.1V72.252a4.516,4.516,0,0,0,3.851-2.133L98.475,49.866A19.237,19.237,0,0,0,82.162,20.432ZM65.46,49.866,71.354,59.3H51.2a1.621,1.621,0,0,1-1.619-1.619V41.484A11.349,11.349,0,0,0,38.245,30.148H27.106l.525-.75a13.915,13.915,0,0,0,1.862-12.205H78.729v3.5A19.217,19.217,0,0,0,65.46,49.866ZM23.671,9.1a4.864,4.864,0,0,1,4.858-4.858H73.871A4.864,4.864,0,0,1,78.729,9.1v4.858H27.965a14.027,14.027,0,0,0-4.295-4.3ZM16.8,39.228a1.546,1.546,0,0,1-2.442,0L6.172,27.541a10.692,10.692,0,0,1,8.759-16.825h1.286a10.694,10.694,0,0,1,8.759,16.827Zm8.043-5.841H38.245a8.106,8.106,0,0,1,8.1,8.1V57.677A4.864,4.864,0,0,0,51.2,62.535H73.379l4.048,6.477H47.961a8.106,8.106,0,0,1-8.1-8.1V44.723a4.864,4.864,0,0,0-4.858-4.858H23.671V35.053ZM73.871,98.161H28.529A4.864,4.864,0,0,1,23.671,93.3V90.022a8.013,8.013,0,0,0,4.858,1.661H73.871a8.013,8.013,0,0,0,4.858-1.661V93.3A4.864,4.864,0,0,1,73.871,98.161Zm0-9.716H28.529a4.864,4.864,0,0,1-4.858-4.858V43.1H35.006a1.621,1.621,0,0,1,1.619,1.619V60.916A11.349,11.349,0,0,0,47.961,72.252H78.729V83.587A4.864,4.864,0,0,1,73.871,88.445Zm21.858-40.3L83.072,68.4a1.347,1.347,0,0,1-2.207,0L68.208,48.148A16,16,0,0,1,81.773,23.671h.389A16,16,0,0,1,95.729,48.148Z"/><path class="a" d="M13.1,9a8.1,8.1,0,1,0,8.1,8.1A8.106,8.106,0,0,0,13.1,9Zm0,12.955A4.858,4.858,0,1,1,17.955,17.1,4.864,4.864,0,0,1,13.1,21.955Z" transform="translate(2.477 4.955)"/><path class="a" d="M55.955,17A12.955,12.955,0,1,0,68.91,29.955,12.97,12.97,0,0,0,55.955,17Zm0,22.671a9.716,9.716,0,1,1,9.716-9.716A9.726,9.726,0,0,1,55.955,39.671Z" transform="translate(26.013 9.91)"/><path class="a" d="M21,13h3.239v3.239H21Z" transform="translate(12.387 7.432)"/><path class="a" d="M25,13h3.239v3.239H25Z" transform="translate(14.865 7.432)"/><path class="a" d="M29,13h3.239v3.239H29Z" transform="translate(17.342 7.432)"/></g></svg>