<svg xmlns="http://www.w3.org/2000/svg" width="24.772" height="29.726" viewBox="0 0 24.772 29.726"><defs><style>.a{fill:#1a3365;}</style></defs><g transform="translate(-2)"><path class="a" d="M18.721,29.726H5.1A3.1,3.1,0,0,1,2,26.63V3.1A3.1,3.1,0,0,1,5.1,0H18.721a3.1,3.1,0,0,1,3.1,3.1V8.051a.619.619,0,0,1-1.239,0V3.1a1.86,1.86,0,0,0-1.858-1.858H5.1A1.86,1.86,0,0,0,3.239,3.1V26.63A1.86,1.86,0,0,0,5.1,28.488H18.721a1.86,1.86,0,0,0,1.858-1.858V21.675a.619.619,0,1,1,1.239,0V26.63A3.1,3.1,0,0,1,18.721,29.726Z" transform="translate(0)"/><path class="a" d="M13.789,3.716H8.835A1.86,1.86,0,0,1,6.977,1.858a.62.62,0,0,0-.619-.619H5.119A.619.619,0,1,1,5.119,0H6.358A1.86,1.86,0,0,1,8.216,1.858a.62.62,0,0,0,.619.619h4.954a.62.62,0,0,0,.619-.619A1.86,1.86,0,0,1,16.267,0h1.239a.619.619,0,0,1,0,1.239H16.267a.62.62,0,0,0-.619.619A1.86,1.86,0,0,1,13.789,3.716Z" transform="translate(0.596)"/><path class="a" d="M15.1,13.193a.622.622,0,0,1-.438-.181l-2.477-2.477a.62.62,0,0,1,0-.876l2.477-2.477a.619.619,0,0,1,.876.876L13.5,10.1l2.039,2.039a.62.62,0,0,1,0,.876A.613.613,0,0,1,15.1,13.193Z" transform="translate(2.386 1.67)"/><path class="a" d="M23.707,10.239H12.869a.619.619,0,1,1,0-1.239H23.707a.619.619,0,0,1,0,1.239Z" transform="translate(2.446 2.147)"/><path class="a" d="M19.619,18.193a.619.619,0,0,1-.438-1.057L21.22,15.1l-2.039-2.039a.619.619,0,0,1,.876-.876l2.477,2.477a.62.62,0,0,1,0,.876l-2.477,2.477A.621.621,0,0,1,19.619,18.193Z" transform="translate(4.056 2.864)"/><path class="a" d="M23.457,15.239H12.619a.619.619,0,0,1,0-1.239H23.457a.619.619,0,1,1,0,1.239Z" transform="translate(2.386 3.34)"/></g></svg>