<svg xmlns="http://www.w3.org/2000/svg" width="11.413" height="14.777" viewBox="0 0 11.413 14.777"><defs><style>.a{fill:#1a3365;}</style></defs><g transform="translate(0 7.374)"><path class="a" d="M65.246,255.5h-2.5a4.462,4.462,0,0,0-4.457,4.457V262.9H69.7v-2.946A4.462,4.462,0,0,0,65.246,255.5Zm-6.09,6.537v-2.08a3.6,3.6,0,0,1,3.591-3.591h2.5a3.6,3.6,0,0,1,3.591,3.591v2.08Z" transform="translate(-58.29 -255.5)"/></g><g transform="translate(2.26)"><path class="a" d="M140.036,0a3.446,3.446,0,1,0,3.446,3.446A3.45,3.45,0,0,0,140.036,0Zm0,6.027a2.581,2.581,0,1,1,2.581-2.581A2.584,2.584,0,0,1,140.036,6.027Z" transform="translate(-136.59)"/></g></svg>