<svg xmlns="http://www.w3.org/2000/svg" width="28.667" height="28.667" viewBox="0 0 28.667 28.667"><defs><style>.a{fill:#fff;}</style></defs><circle class="a" cx="1.5" cy="1.5" r="1.5" transform="translate(20.333 10.333)"/><path class="a" d="M24.187,2.24H22.732V1.12a1.12,1.12,0,1,0-2.24,0V2.24H15.4V1.12a1.12,1.12,0,0,0-2.24,0V2.24H8.118V1.12a1.12,1.12,0,1,0-2.24,0V2.24h-1.4A4.484,4.484,0,0,0,0,6.719V24.187a4.484,4.484,0,0,0,4.479,4.479h8.566a1.12,1.12,0,0,0,0-2.24H4.479a2.242,2.242,0,0,1-2.24-2.24V6.719a2.242,2.242,0,0,1,2.24-2.24h1.4V5.6a1.12,1.12,0,0,0,2.24,0V4.479h5.039V5.6a1.12,1.12,0,0,0,2.24,0V4.479h5.1V5.6a1.12,1.12,0,0,0,2.24,0V4.479h1.456a2.242,2.242,0,0,1,2.24,2.24V13.1a1.12,1.12,0,1,0,2.24,0V6.719A4.484,4.484,0,0,0,24.187,2.24Z"/><path class="a" d="M276.775,270a6.775,6.775,0,1,0,6.775,6.775A6.782,6.782,0,0,0,276.775,270Zm0,11.31a4.535,4.535,0,1,1,4.535-4.535A4.54,4.54,0,0,1,276.775,281.31Z" transform="translate(-254.883 -254.883)"/><path class="a" d="M373.743,332.3h-.5V331.12a1.12,1.12,0,0,0-2.24,0v2.3a1.12,1.12,0,0,0,1.12,1.12h1.624a1.12,1.12,0,1,0,0-2.24Z" transform="translate(-350.228 -311.524)"/><circle class="a" cx="1.5" cy="1.5" r="1.5" transform="translate(15.333 10.333)"/><ellipse class="a" cx="1.5" cy="1" rx="1.5" ry="1" transform="translate(10.333 15.333)"/><circle class="a" cx="1.5" cy="1.5" r="1.5" transform="translate(5.333 10.333)"/><ellipse class="a" cx="1.5" cy="1" rx="1.5" ry="1" transform="translate(5.333 15.333)"/><ellipse class="a" cx="1.5" cy="1" rx="1.5" ry="1" transform="translate(5.333 20.333)"/><ellipse class="a" cx="1.5" cy="1" rx="1.5" ry="1" transform="translate(10.333 20.333)"/><circle class="a" cx="1.5" cy="1.5" r="1.5" transform="translate(10.333 10.333)"/></svg>